<?xml version="1.0" encoding="UTF-8" standalone="no"?>
<!DOCTYPE svg PUBLIC "-//W3C//DTD SVG 1.1//EN"
"http://www.w3.org/Graphics/SVG/1.1/DTD/svg11.dtd">


<!-- Page 1 -->
<svg x="0" y="0" width="1286" height="909" viewBox="0 0 1286 909" version="1.1" xmlns="http://www.w3.org/2000/svg" xmlns:xlink="http://www.w3.org/1999/xlink"
style="display: block;margin-left: auto;margin-right: auto;">
<defs>
<clipPath id="c_1"><path d="M0,0H1286V909H0Z"/></clipPath>
<style type="text/css"><![CDATA[
text { white-space: pre; }
path, image { pointer-events: none; }

.s1{
font-size: 78.28px;
font-family: Arial-BoldItalicMT_l;
fill: #FFFFFF;
}
.s2{
font-size: 100.86px;
font-family: ArialMT_u;
fill: #231F20;
}

.g0{
fill: #5EABD6;
}
.g1{
fill: #6E6E70;
}

]]></style>

</defs>
<path d="M0,0
L0,909
L1286,909
L1286,0 Z " 
fill="#FFFFFF" stroke="none"/>
<g clip-path="url(#c_1)">
<path fill-rule="evenodd" d="M39.5,417H1223.1l-22.3,105.1H18.2Z" class="g0"/>
<path fill-rule="evenodd" d="M354.6,348.7c-4.8,11,-11.4,19.4,-20,25.2c-8.6,5.8,-17.3,8.7,-26.2,8.7c-9.4,0,-17.4,-3.7,-24,-11.2c-6.5,-7.5,-9.7,-18.3,-9.7,-32.5c0,-2.4,.2,-5.1,.5,-8H387c1.4,-7.9,2,-15.5,2,-22.9c0,-19.5,-5.3,-34.8,-16.2,-46.1C362,250.7,347.5,245,329.4,245c-14.2,0,-27.4,3.9,-39.6,11.4C277.6,264,267.7,275.6,260,291.2c-7.7,15.6,-11.5,31.7,-11.5,48.2c0,12.7,2.4,24,7.3,33.9c5,9.9,12.1,17.5,21.5,22.7c9.4,5.2,19.7,7.8,31,7.8c18,0,33.5,-5.6,46.5,-16.9c13,-11.2,21.3,-23.1,25,-35.6ZM279.4,311.1c4.4,-15.3,11.2,-26.8,20.4,-34.4c9,-7.6,19.1,-11.5,30.2,-11.5c10.2,0,18.5,3.5,25,10.4c6.5,6.9,9.7,16.8,9.7,29.8c0,1.1,0,3.1,-.1,5.7Z" class="g1"/>
<path fill-rule="evenodd" d="M403.9,400.4h25.9L467.1,222.3H441.2Z" class="g1"/>
<path fill-rule="evenodd" d="M463.1,400.4H489l15,-71.8c3.2,-15.5,7.4,-27.4,12.4,-35.7c5.1,-8.4,11.6,-14.9,19.7,-19.5c8,-4.7,15.7,-7,23.1,-7c4.9,0,9,1.5,12.1,4.6c3,3,4.6,7,4.6,12c0,2.9,-.8,7.9,-2.3,14.8L552.1,400.4h26l15.4,-73.7c3.4,-15.7,7.2,-27.4,11.6,-34.9c4.5,-7.6,10.7,-13.8,18.7,-18.4c8,-4.7,15.9,-7,23.6,-7c5.7,0,10.2,1.4,13.3,4.3c3.2,2.8,4.7,6.7,4.7,11.7c0,3.5,-.9,9.4,-2.7,17.6L641.8,400.4h25.9l16.7,-79.8l3.8,-18.1c2.2,-10.7,3.2,-18.5,3.2,-23.1c0,-10.9,-3.1,-19.3,-9.5,-25.3c-6.3,-6,-15.8,-9.1,-28.5,-9.1c-9.4,0,-18.4,2.4,-27,7.1c-8.5,4.8,-16.6,11.9,-24.3,21.4c-2,-8.9,-6.2,-15.9,-12.5,-20.9c-6.4,-5,-14.3,-7.6,-23.7,-7.6c-8.9,0,-17.1,2.1,-24.7,6.2c-7.6,4.1,-16.1,11.6,-25.8,22.3l5.3,-25H494.8Z" class="g1"/>
<path fill-rule="evenodd" d="M809.6,381.5c.6,7.6,1.5,13.9,2.9,18.9h26.3c-2.1,-9,-3.2,-15.9,-3.2,-20.6c0,-7.6,1.3,-17.3,4,-29.3L848,312.7c2.4,-10.7,3.6,-20.1,3.6,-28.2c0,-10.7,-4.2,-19.3,-12.6,-26C828.1,249.5,813.2,245,794.4,245c-17.6,0,-32.2,4,-43.8,12.1c-11.6,8,-20.1,19.5,-25.4,34.6l26.2,2.3c3.1,-8.9,8.1,-15.7,15.1,-20.5c6.8,-4.9,15.7,-7.3,26.6,-7.3c11.5,0,20.3,2.4,26.3,7.2c4.4,3.4,6.6,8.1,6.6,14.1c0,4.7,-1,10.6,-3,17.6c-7,2.8,-18.7,4.5,-35,5.2c-16.2,.6,-27.2,1.6,-33.1,2.7c-9.2,1.7,-17,4.5,-23.4,8.5c-6.4,3.9,-11.5,9.2,-15.4,15.8c-3.9,6.4,-5.8,14,-5.8,22.5c0,12.8,4.3,23.4,12.9,31.6c8.6,8.3,19.9,12.4,33.9,12.4c9.4,0,18.3,-1.8,26.6,-5.4c8.3,-3.6,16.9,-9.2,25.9,-16.9Zm9.5,-58.1c-2.6,15,-6.1,26.5,-10.7,34.6c-4.5,8.1,-10.8,14.4,-18.7,19c-7.9,4.5,-16.2,6.8,-24.7,6.8c-9.3,0,-16.4,-2.4,-21.4,-7c-5.1,-4.7,-7.5,-10.7,-7.5,-17.9c0,-5.4,1.5,-10.4,4.7,-14.9c3.1,-4.5,7.8,-7.7,14,-9.8c6.2,-2,16.8,-3.7,31.9,-5.1c9.7,-.8,16.6,-1.6,20.8,-2.4c4.1,-.7,8,-1.8,11.6,-3.3Z" class="g1"/>
<path fill-rule="evenodd" d="M1055.1,348.7c-4.7,11,-11.4,19.4,-20,25.2c-8.6,5.8,-17.2,8.7,-26.1,8.7c-9.5,0,-17.5,-3.7,-24,-11.2c-6.5,-7.5,-9.8,-18.3,-9.8,-32.5c0,-2.4,.2,-5.1,.6,-8h111.8c1.4,-7.9,2,-15.5,2,-22.9c0,-19.5,-5.4,-34.8,-16.2,-46.1C1062.6,250.7,1048.1,245,1030,245c-14.2,0,-27.4,3.9,-39.6,11.4c-12.2,7.6,-22.1,19.2,-29.9,34.8c-7.6,15.6,-11.4,31.7,-11.4,48.2c0,12.7,2.4,24,7.3,33.9c4.9,9.9,12.1,17.5,21.5,22.7c9.3,5.2,19.7,7.8,30.9,7.8c18,0,33.6,-5.6,46.6,-16.9c13,-11.2,21.3,-23.1,24.9,-35.6ZM979.9,311.1c4.5,-15.3,11.3,-26.8,20.4,-34.4c9.1,-7.6,19.2,-11.5,30.2,-11.5c10.2,0,18.6,3.5,25.1,10.4c6.5,6.9,9.7,16.8,9.7,29.8c0,1.1,-.1,3.1,-.2,5.7Z" class="g1"/>
<path fill-rule="evenodd" d="M1211.3,345c-4.4,13.1,-10.4,22.8,-18.1,29.2c-7.6,6.4,-15.7,9.6,-24.1,9.6c-8.3,0,-15.4,-3.3,-21.1,-9.7c-5.7,-6.5,-8.6,-16.3,-8.6,-29.2c0,-12.4,2.1,-25.3,6.5,-38.7c4.3,-13.4,10.3,-23.4,17.9,-30c7.7,-6.6,16.7,-9.8,27.1,-9.8c8.9,0,16.1,2.7,21.7,8.1c5.4,5.4,8.2,13,8.3,22.6l25.4,-1.7c0,-15.2,-4.7,-27.3,-14.3,-36.5c-9.5,-9.2,-22.4,-13.9,-38.7,-13.9c-15.7,0,-29.7,4.2,-42,12.6c-12.2,8.3,-21.6,20.5,-28.2,36.5c-6.6,16,-9.9,32.3,-9.9,48.9c0,19.2,5.2,34.1,15.4,44.8c10.3,10.7,23.6,16,40.1,16c15.3,0,28.9,-4.6,40.8,-13.8c12,-9.2,21.2,-23.3,27.7,-42.3Z" class="g1"/>
<path fill-rule="evenodd" d="M58.6,332.6c.1,26.9,7.6,45.5,22.6,55.8c15.1,10.4,34.4,15.5,58.2,15.5c15.7,0,29.7,-2.6,41.9,-7.8c12.2,-5.3,21.7,-12.7,28.6,-22.2c7,-9.7,10.4,-20.1,10.4,-31.5c0,-9.1,-2.1,-17.3,-6.2,-24.5c-4.1,-7.2,-9.9,-13.3,-17.5,-18.3c-5.7,-3.9,-16.1,-9.1,-31.2,-15.8C146.8,275.6,135,270.1,130.1,267.4c-7,-4,-11.8,-7.9,-14.5,-12c-2.6,-4,-4,-8.6,-4,-13.8c0,-8.7,3.3,-15.6,9.8,-20.9c8.4,-6.8,20.3,-10.3,35.6,-10.3c.3,0,.5,0,.8,0c123.9,1.1,58.3,-23.2,.2,-23.2c-14.3,0,-27.2,2.3,-38.6,6.8c-11.4,4.6,-20,11.2,-25.9,19.9c-5.9,8.6,-8.9,18.4,-8.9,29.1c0,9.4,2.2,17.7,6.7,25c4.5,7.3,11.5,14,20.9,20.2c6,3.9,17.3,9.4,33.8,16.5c21.2,9.2,34.2,16.4,39,21.7c4.6,5.5,7,11.5,7,18c0,9.5,-4.4,17.9,-13.2,25.2c-8.8,7.4,-21.7,11,-38.4,11c-11.9,0,-22.1,-1.8,-30.6,-5.5C101.2,371.5,95,366.2,91.3,359.6c-3.7,-6.8,-5.5,-14.2,-5.5,-22.3L86,330Z" class="g0"/>
<path fill-rule="evenodd" d="M939.9,210.4H912.1l-39.7,190h28Z" class="g0"/>
<path fill-rule="evenodd" d="M1002.2,210.5H157.9V187.2h1113l-5,23.3Z" class="g0"/>
<text x="320" y="493" class="s1">Systems GmbH</text>
<text x="54" y="610" dx="0,0,0,-5.5,0,0,0,0,0,0,0,0,0,0,0,0,0,0,0,0,0,0,0" class="s2">www.selmatec-systems.de</text>

</g>

<!-- Any embedded fonts defined here -->
<style type="text/css" ><![CDATA[

@font-face {
	font-family: Arial-BoldItalicMT_l;
	src: url("fonts/Arial-BoldItalicMT_l.woff") format("woff");
}

@font-face {
	font-family: ArialMT_u;
	src: url("fonts/ArialMT_u.woff") format("woff");
}

]]></style>

</svg>
