<!DOCTYPE html>
<svg xmlns="http://www.w3.org/2000/svg" viewBox="0 0 350 350">
<path style="stroke: #ff0000; stroke-width: 1; fill: none;" d="M139.885 75.3214 139.957 76.4597 140.127 77.7846 140.382 79.2476 140.709 80.8 141.094 82.3933 141.523 83.979 141.984 85.5083 142.463 86.9329 142.947 88.204 143.422 89.2731 143.71 89.342 143.964 89.3465 144.191 89.3012 144.396 89.2209 144.586 89.1202 144.768 89.014 144.946 88.9169 145.127 88.8435 145.317 88.8087 145.522 88.8272 144.95 87.853 144.435 86.6508 143.976 85.2578 143.575 83.7113 143.233 82.0483 142.951 80.3062 142.729 78.5222 142.57 76.7335 142.473 74.9772 142.441 73.2907 142.24 73.4898 141.971 73.704 141.655 73.928 141.312 74.1563 140.964 74.3837 140.632 74.605 140.336 74.8147 140.099 75.0075 139.942 75.1782 139.885 75.3214 139.885 75.3214 139.885 75.3214 139.885 75.3214 139.885 75.3214 139.885 75.3214 139.885 75.3214 139.885 75.3214 139.885 75.3214 139.885 75.3214 139.885 75.3214M334.657 219.493 334.46 225.492 333.873 231.296 332.94 236.915 331.706 242.36 330.215 247.642 328.51 252.772 326.635 257.761 324.634 262.618 322.552 267.355 320.431 271.983 320.217 272.161 319.956 272.294 319.657 272.387 319.325 272.447 318.966 272.481 318.587 272.494 318.195 272.494 317.795 272.486 317.393 272.477 316.997 272.474 316.435 278.831 315.794 285.43 314.987 292.101 313.928 298.671 312.528 304.971 310.7 310.829 308.359 316.076 305.415 320.54 301.783 324.051 297.374 326.438 295.644 326.937 293.961 327.166 292.332 327.147 290.765 326.904 289.269 326.459 287.853 325.837 286.524 325.058 285.292 324.148 284.163 323.128 283.147 322.021 281.156 319.269 279.424 316.145 277.918 312.711 276.605 309.03 275.45 305.162 274.421 301.172 273.483 297.121 272.603 293.072 271.748 289.087 270.884 285.228 270.522 285.002 270.094 284.841 269.614 284.733 269.096 284.663 268.554 284.616 268.002 284.579 267.454 284.537 266.924 284.478 266.427 284.386 265.977 284.248 264.661 281.894 263.359 279.059 262.181 275.886 261.234 272.519 260.626 269.102 260.467 265.778 260.863 262.691 261.923 259.983 263.755 257.8 266.468 256.284 265.617 254.795 265.394 253.286 265.672 251.744 266.322 250.159 267.217 248.52 268.229 246.814 269.229 245.033 270.091 243.163 270.685 241.194 270.884 239.114 267.293 242.219 263.704 245.538 260.083 248.999 256.399 252.527 252.619 256.049 248.71 259.492 244.641 262.782 240.379 265.846 235.891 268.61 231.146 271.001 230.192 276.57 229.15 281.93 228.01 287.096 226.761 292.082 225.394 296.904 223.898 301.577 222.264 306.116 220.48 310.536 218.538 314.851 216.427 319.078 214.244 322.946 211.754 326.754 208.957 330.423 205.85 333.875 202.432 337.03 198.701 339.808 194.655 342.13 190.294 343.917 185.615 345.09 180.616 345.569 172.37 345.116 164.917 343.469 158.234 340.739 152.298 337.035 147.086 332.464 142.574 327.136 138.74 321.16 135.56 314.646 133.01 307.701 131.069 300.435 130.593 298.384 130.101 296.286 129.651 294.183 129.301 292.115 129.109 290.124 129.133 288.252 129.43 286.539 130.059 285.028 131.076 283.759 132.541 282.775 128.925 280.234 125.244 277.395 121.591 274.251 118.058 270.794 114.739 267.016 111.725 262.909 109.109 258.466 106.984 253.678 105.443 248.538 104.578 243.039 104.43 240.937 104.361 238.843 104.386 236.782 104.521 234.778 104.782 232.858 105.183 231.045 105.74 229.366 106.469 227.844 107.385 226.506 108.503 225.377 110.007 225.142 111.541 224.993 113.096 224.922 114.66 224.92 116.224 224.978 117.78 225.088 119.316 225.24 120.822 225.427 122.291 225.639 123.71 225.868 123.46 223.96 123.197 222.065 122.928 220.177 122.656 218.29 122.387 216.401 122.126 214.503 121.877 212.593 121.647 210.664 121.439 208.713 121.259 206.735 120.475 206.958 119.677 207.275 118.867 207.656 118.046 208.072 117.213 208.493 116.371 208.892 115.519 209.239 114.659 209.505 113.792 209.66 112.918 209.677 111.967 209.502 111.081 209.141 110.251 208.636 109.465 208.033 108.712 207.374 107.981 206.703 107.263 206.064 106.545 205.5 105.817 205.055 105.069 204.772 104.494 204.67 103.916 204.636 103.334 204.657 102.749 204.721 102.16 204.813 101.569 204.921 100.975 205.033 100.379 205.136 99.7814 205.216 99.1816 205.262 91.5504 205.073 83.9608 203.946 76.5386 201.955 69.4093 199.172 62.6986 195.67 56.5322 191.522 51.0357 186.803 46.3346 181.584 42.5547 175.939 39.8216 169.94 37.6514 168.798 35.5222 167.501 33.4932 166.031 31.6235 164.37 29.9724 162.498 28.5991 160.398 27.5627 158.05 26.9224 155.436 26.7374 152.537 27.0669 149.335 24.1103 150.397 21.4627 150.623 19.1727 150.138 17.2892 149.07 15.8609 147.547 14.9367 145.697 14.5652 143.645 14.7952 141.521 15.6756 139.45 17.255 137.561 18.4164 136.719 19.7354 136.114 21.1786 135.728 22.7129 135.541 24.3051 135.535 25.9221 135.692 27.5306 135.991 29.0974 136.415 30.5893 136.944 31.9732 137.561 32.796 136.372 33.6836 135.248 34.6537 134.207 35.7236 133.266 36.9108 132.442 38.2328 131.752 39.7071 131.215 41.351 130.848 43.1821 130.668 45.2179 130.692 45.0951 129.005 44.7986 127.392 44.3873 125.832 43.9203 124.302 43.4567 122.78 43.0555 121.243 42.7757 119.67 42.6765 118.037 42.8168 116.322 43.2558 114.504 46.653 113.195 49.5782 113.134 52.0725 114.135 54.177 116.009 55.9327 118.57 57.3807 121.629 58.562 125 59.5178 128.494 60.289 131.926 60.9168 135.107 63.1223 135.728 65.1569 136.591 66.9866 137.701 68.5777 139.063 69.8963 140.682 70.9087 142.56 71.5809 144.704 71.8792 147.117 71.7697 149.804 71.2187 152.769 72.9093 153.531 74.6675 154.227 76.4946 154.853 78.3921 155.408 80.3613 155.892 82.4037 156.302 84.5206 156.638 86.7134 156.898 88.9836 157.08 91.3325 157.183 91.7974 153.773 93.0041 151.104 94.8565 149.082 97.2584 147.608 100.114 146.588 103.326 145.925 106.799 145.523 110.437 145.285 114.144 145.116 117.823 144.919 118.15 139.647 118.033 134.618 117.487 129.845 116.53 125.34 115.18 121.117 113.452 117.189 111.364 113.569 108.932 110.271 106.174 107.307 103.106 104.692 100.633 105.353 98.2147 105.407 95.9268 104.916 93.8442 103.943 92.0419 102.55 90.5948 100.798 89.5781 98.7502 89.0668 96.4674 89.1358 94.0123 89.8604 91.4466 88.9649 90.7888 87.8233 90.2692 86.4841 89.8786 84.9955 89.6076 83.406 89.447 81.7637 89.3875 80.1171 89.4198 78.5144 89.5347 77.004 89.7229 75.6343 89.9752 76.2399 91.4299 77.087 92.6434 78.1205 93.6707 79.2851 94.567 80.5256 95.3873 81.787 96.1867 83.0139 97.0203 84.1512 97.9432 85.1437 99.0104 85.9362 100.277 84.5059 99.4513 83.0709 98.6302 81.6539 97.791 80.2778 96.9108 78.9655 95.9666 77.7399 94.9356 76.6238 93.7948 75.6402 92.5214 74.8118 91.0925 74.1615 89.4852 74.7273 88.9236 75.4491 88.5176 76.3029 88.2434 77.265 88.0773 78.3114 87.9953 79.4184 87.9736 80.5619 87.9883 81.7182 88.0157 82.8633 88.0319 83.9734 88.0131 79.2813 84.9547 74.4164 82.0686 69.4952 79.2386 64.6342 76.3482 59.9499 73.281 55.5588 69.9207 51.5775 66.1508 48.1223 61.8551 45.3098 56.9171 43.2565 51.2204 41.3376 49.9361 39.2792 48.1163 37.2159 45.8522 35.2822 43.235 33.6127 40.3557 32.3418 37.3056 31.6042 34.1757 31.5343 31.0574 32.2667 28.0416 33.936 25.2196 34.2173 24.917 34.5533 24.6273 34.9368 24.3505 35.3606 24.0864 35.8177 23.8351 36.3008 23.5964 36.8029 23.3702 37.3167 23.1565 37.8351 22.9551 38.3509 22.7661 38.3029 19.4521 38.8376 16.4583 39.8959 13.8262 41.4186 11.5976 43.3464 9.81409 45.6203 8.51726 48.1809 7.7488 50.9692 7.55034 53.9259 7.96353 56.9919 9.03 60.996 6.04797 65.6917 4.00194 70.8909 2.81804 76.4051 2.42236 82.0459 2.74103 87.6252 3.70015 92.9544 5.22585 97.8453 7.24423 102.109 9.68141 105.559 12.4635 106.574 11.8114 107.713 11.3214 108.93 11.0033 110.18 10.8672 111.419 10.9228 112.6 11.1802 113.68 11.6493 114.614 12.3401 115.356 13.2624 115.861 14.4263 119.714 13.0936 123.465 12.5883 127.043 12.8459 130.378 13.8024 133.401 15.3933 136.041 17.5543 138.228 20.2213 139.892 23.3298 140.963 26.8156 141.371 30.6145 142.261 30.9999 143.093 31.4438 143.867 31.9451 144.584 32.5031 145.246 33.1168 145.852 33.7855 146.405 34.5081 146.904 35.2839 147.351 36.112 147.748 36.9915 148.922 36.3421 149.847 35.5283 150.592 34.6044 151.226 33.625 151.819 32.6445 152.439 31.7174 153.156 30.8983 154.039 30.2415 155.157 29.8016 156.578 29.6331 159.222 30.1247 161.237 31.5257 162.658 33.6464 163.521 36.2967 163.864 39.287 163.722 42.4272 163.131 45.5275 162.128 48.3981 160.749 50.849 159.031 52.6904 159.703 54.2042 160.094 55.7453 160.205 57.2672 160.036 58.7235 159.586 60.0678 158.857 61.2536 157.848 62.2344 156.559 62.9639 154.991 63.3956 153.143 63.483 152.928 64.1022 152.723 64.7313 152.521 65.3641 152.317 65.9943 152.104 66.6156 151.876 67.2218 151.627 67.8067 151.351 68.364 151.04 68.8874 150.69 69.3707 150.12 69.5368 149.557 69.7094 148.992 69.8804 148.417 70.0416 147.825 70.185 147.206 70.3024 146.554 70.3859 145.859 70.4273 145.115 70.4185 144.313 70.3514 143.972 72.3915 143.779 74.4927 143.731 76.6174 143.825 78.728 144.06 80.787 144.433 82.7568 144.941 84.5997 145.583 86.2784 146.355 87.7551 147.256 88.9924 148.068 88.9547 148.845 88.9332 149.585 88.9372 150.288 88.9761 150.951 89.0592 151.574 89.1958 152.155 89.3954 152.693 89.6672 153.186 90.0207 153.633 90.4652 153.895 91.1535 153.981 91.8245 153.937 92.4805 153.805 93.1238 153.63 93.7566 153.454 94.3812 153.324 94.9998 153.28 95.6146 153.369 96.228 153.633 96.8422 155.361 95.9407 157.241 95.3725 159.162 95.1409 161.013 95.2491 162.683 95.7005 164.061 96.4983 165.035 97.6457 165.495 99.1462 165.329 101.003 164.426 103.219 165.078 102.743 165.733 102.269 166.388 101.796 167.041 101.321 167.69 100.842 168.333 100.357 168.968 99.8638 169.593 99.3602 170.205 98.8442 170.803 98.3136 172.469 99.1997 174.071 100.149 175.625 101.145 177.148 102.174 178.654 103.218 180.16 104.262 181.682 105.29 183.236 106.287 184.837 107.237 186.501 108.124 186.543 108.854 186.478 109.476 186.325 110.01 186.106 110.478 185.84 110.9 185.549 111.295 185.252 111.686 184.972 112.091 184.727 112.533 184.538 113.03 186.308 111.661 188.216 110.429 190.255 109.328 192.418 108.351 194.697 107.49 197.086 106.739 199.578 106.091 202.164 105.538 204.839 105.074 207.596 104.691 208.491 105.366 209.373 106.054 210.241 106.756 211.096 107.472 211.937 108.201 212.764 108.943 213.577 109.699 214.377 110.469 215.163 111.252 215.935 112.049 219.208 110.74 222.597 109.212 226.042 107.466 229.485 105.498 232.869 103.309 236.134 100.897 239.222 98.2607 242.074 95.3984 244.633 92.3092 246.84 88.9917 247.514 87.8399 248.234 86.5844 248.967 85.254 249.68 83.877 250.342 82.4821 250.92 81.0977 251.382 79.7525 251.695 78.4749 251.827 77.2936 251.746 76.237 251.25 74.8966 250.422 73.8913 249.326 73.15 248.026 72.6015 246.584 72.1744 245.065 71.7976 243.531 71.3998 242.047 70.9099 240.677 70.2565 239.483 69.3686 238.879 66.8904 239.141 64.8686 240.117 63.2855 241.657 62.1232 243.607 61.364 245.815 60.9901 248.131 60.9837 250.401 61.327 252.475 62.0022 254.2 62.9916 254.851 62.7599 255.421 62.4469 255.927 62.0697 256.385 61.6455 256.814 61.1912 257.23 60.724 257.65 60.2609 258.091 59.8191 258.571 59.4156 259.106 59.0674 258.744 57.86 258.319 56.7148 257.861 55.6028 257.399 54.495 256.961 53.3624 256.577 52.176 256.276 50.9066 256.087 49.5254 256.039 48.0033 256.162 46.3113 257.693 44.0507 259.512 42.6117 261.524 41.9154 263.631 41.8831 265.736 42.4358 267.743 43.4949 269.553 44.9814 271.072 46.8166 272.2 48.9216 272.842 51.2176 275.888 49.7368 278.579 49.3671 280.847 49.9174 282.626 51.1967 283.846 53.014 284.442 55.1781 284.344 57.498 283.486 59.7827 281.8 61.8412 279.218 63.4823 280.089 65.6023 281.439 67.1841 283.193 68.3021 285.274 69.0303 287.604 69.443 290.107 69.6143 292.706 69.6184 295.325 69.5294 297.886 69.4217 300.313 69.3693 301.861 71.7335 302.477 73.995 302.282 76.126 301.399 78.099 299.952 79.8862 298.063 81.46 295.854 82.7926 293.449 83.8566 290.969 84.6241 288.539 85.0675 286.165 88.4285 284.036 91.9419 282.102 95.5772 280.313 99.3037 278.622 103.091 276.978 106.908 275.333 110.724 273.638 114.509 271.842 118.231 269.898 121.862 267.818 125.35 265.637 128.702 263.356 131.928 260.98 135.036 258.511 138.038 255.952 140.943 253.306 143.76 250.576 146.5 247.766 149.172 244.878 151.787 246.932 153.264 248.966 154.763 250.975 156.286 252.955 157.838 254.903 159.423 256.814 161.044 258.684 162.706 260.51 164.413 262.287 166.168 264.012 167.976 275.76 166.36 286.795 166.513 296.993 168.334 306.232 171.725 314.389 176.587 321.342 182.821 326.968 190.327 331.145 199.007 333.748 208.762 334.657 219.493 334.657 219.493 334.657 219.493 334.657 219.493 334.657 219.493 334.657 219.493 334.657 219.493 334.657 219.493 334.657 219.493 334.657 219.493 334.657 219.493M324.845 258.739 326.251 254.481 327.606 250.213 328.876 245.917 330.03 241.577 331.035 237.174 331.858 232.691 332.468 228.11 332.832 223.414 332.919 218.584 332.695 213.604 331.405 205.34 328.9 197.639 325.263 190.595 320.571 184.3 314.907 178.849 308.35 174.333 300.982 170.846 292.881 168.482 284.13 167.332 274.807 167.49 269.087 168.285 263.656 169.599 258.512 171.382 253.649 173.579 249.064 176.138 244.752 179.006 240.711 182.13 236.935 185.457 233.421 188.935 230.165 192.509 226.924 196.463 223.905 200.583 221.094 204.86 218.479 209.289 216.045 213.861 213.78 218.57 211.668 223.407 209.698 228.367 207.855 233.442 206.126 238.624 205.727 238.464 205.462 238.214 205.292 237.91 205.182 237.584 205.093 237.273 204.989 237.012 204.832 236.834 204.585 236.775 204.211 236.87 203.672 237.152 198.978 240.161 193.927 242.812 188.537 245.124 182.827 247.115 176.813 248.803 170.515 250.206 163.951 251.344 157.138 252.233 150.096 252.893 142.841 253.341 146.699 257.924 151.204 262.04 156.302 265.675 161.941 268.814 168.068 271.442 174.629 273.544 181.573 275.106 188.845 276.112 196.393 276.548 204.164 276.398 210.952 275.669 217.411 274.316 223.55 272.403 229.375 269.999 234.893 267.168 240.111 263.976 245.036 260.49 249.676 256.776 254.037 252.9 258.126 248.927 259.151 247.94 260.501 246.698 262.085 245.265 263.809 243.705 265.58 242.079 267.303 240.452 268.887 238.886 270.237 237.445 271.26 236.192 271.863 235.19 272.223 234.074 272.421 232.9 272.502 231.695 272.516 230.481 272.509 229.284 272.529 228.128 272.623 227.037 272.839 226.035 273.224 225.148 273.825 224.398 274.129 226.255 274.25 228.137 274.215 230.032 274.052 231.927 273.787 233.808 273.446 235.662 273.057 237.476 272.645 239.238 272.238 240.933 271.863 242.549 275.583 245.746 279.623 248.623 283.994 251.17 288.707 253.373 293.775 255.223 299.21 256.705 305.022 257.81 311.224 258.525 317.828 258.839 324.845 258.739 324.845 258.739 324.845 258.739 324.845 258.739 324.845 258.739 324.845 258.739 324.845 258.739 324.845 258.739 324.845 258.739 324.845 258.739 324.845 258.739M323.864 260.7 316.972 260.675 310.484 260.247 304.38 259.435 298.642 258.256 293.252 256.729 288.192 254.872 283.444 252.703 278.988 250.241 274.807 247.504 270.882 244.51 270.562 245.466 270.22 246.401 269.856 247.312 269.466 248.198 269.048 249.056 268.601 249.884 268.121 250.68 267.607 251.441 267.056 252.166 266.467 252.851 269.788 256.639 273.548 260.087 277.747 263.158 282.385 265.815 287.462 268.021 292.979 269.74 298.936 270.934 305.333 271.567 312.17 271.602 319.448 271.002 319.857 269.939 320.294 268.904 320.751 267.889 321.221 266.887 321.695 265.889 322.167 264.889 322.627 263.878 323.069 262.848 323.484 261.791 323.864 260.7 323.864 260.7 323.864 260.7 323.864 260.7 323.864 260.7 323.864 260.7 323.864 260.7 323.864 260.7 323.864 260.7 323.864 260.7 323.864 260.7M288.052 83.6031 290.059 83.1568 292.126 82.5812 294.166 81.8598 296.091 80.9761 297.814 79.9136 299.246 78.6556 300.301 77.1856 300.889 75.4871 300.924 73.5436 300.317 71.3384 298.459 70.8177 296.779 70.5988 295.236 70.6077 293.785 70.7707 292.383 71.0139 290.989 71.2634 289.558 71.4455 288.048 71.4862 286.416 71.3118 284.619 70.8484 281.246 69.035 278.573 66.2926 276.436 62.8875 274.676 59.0864 273.133 55.1557 271.645 51.3619 270.052 47.9715 268.192 45.2509 265.907 43.4668 263.034 42.8855 262.178 42.9977 261.378 43.2565 260.639 43.6385 259.967 44.1201 259.366 44.678 258.843 45.2887 258.403 45.9288 258.052 46.5747 257.794 47.2031 257.636 47.7904 257.459 49.7878 257.67 51.5329 258.165 53.0889 258.844 54.5187 259.605 55.8854 260.346 57.252 260.965 58.6817 261.359 60.2375 261.428 61.9823 261.069 63.9793 260.856 63.7512 260.671 63.4947 260.513 63.2109 260.382 62.9008 260.275 62.5655 260.194 62.2059 260.135 61.8231 260.099 61.4181 260.084 60.992 260.089 60.5458 258.717 61.4185 257.464 62.5153 256.347 63.8141 255.382 65.2934 254.586 66.9312 253.975 68.7058 253.566 70.5953 253.374 72.5779 253.418 74.6319 253.712 76.7354 251.869 82.1526 249.553 87.0969 246.793 91.5969 243.616 95.6807 240.052 99.377 236.128 102.714 231.873 105.72 227.317 108.424 222.486 110.853 217.41 113.037 219.094 115.769 220.659 118.618 222.097 121.596 223.396 124.712 224.546 127.977 225.537 131.401 226.36 134.994 227.003 138.766 227.457 142.727 227.712 146.888 229.534 147.078 231.276 147.347 232.948 147.687 234.558 148.089 236.115 148.544 237.627 149.043 239.104 149.577 240.554 150.137 241.986 150.716 243.41 151.303 246.315 148.622 249.162 145.904 251.943 143.132 254.651 140.29 257.277 137.362 259.814 134.334 262.255 131.188 264.591 127.909 266.815 124.48 268.92 120.887 270.846 117.189 272.626 113.384 274.313 109.507 275.962 105.599 277.626 101.697 279.359 97.8379 281.214 94.0612 283.246 90.4045 285.507 86.9058 288.052 83.6031 288.052 83.6031 288.052 83.6031 288.052 83.6031 288.052 83.6031 288.052 83.6031 288.052 83.6031 288.052 83.6031 288.052 83.6031 288.052 83.6031 288.052 83.6031M277.75 62.0172 280.379 60.8723 282.064 59.2586 282.903 57.3736 282.994 55.4151 282.435 53.5807 281.324 52.068 279.761 51.0746 277.842 50.7982 275.667 51.4363 273.334 53.1867 273.882 53.9635 274.379 54.7915 274.835 55.6603 275.261 56.5596 275.666 57.4791 276.061 58.4084 276.457 59.3372 276.863 60.2551 277.291 61.1519 277.75 62.0172 277.75 62.0172 277.75 62.0172 277.75 62.0172 277.75 62.0172 277.75 62.0172 277.75 62.0172 277.75 62.0172 277.75 62.0172 277.75 62.0172 277.75 62.0172M251.75 73.2998 251.833 72.2049 251.987 71.1811 252.199 70.2154 252.455 69.2946 252.743 68.4056 253.05 67.5352 253.363 66.6705 253.668 65.7982 253.952 64.9053 254.203 63.9786 252.729 63.5333 251.003 63.0955 249.128 62.7323 247.207 62.5105 245.343 62.4973 243.638 62.7596 242.195 63.3643 241.117 64.3786 240.507 65.8693 240.467 67.9035 241.323 68.7162 242.365 69.3422 243.546 69.8289 244.819 70.2234 246.138 70.573 247.454 70.9249 248.721 71.3263 249.89 71.8245 250.916 72.4665 251.75 73.2998 251.75 73.2998 251.75 73.2998 251.75 73.2998 251.75 73.2998 251.75 73.2998 251.75 73.2998 251.75 73.2998 251.75 73.2998 251.75 73.2998 251.75 73.2998M262.543 168.962 259.944 166.047 257.15 163.159 254.147 160.354 250.924 157.69 247.467 155.224 243.764 153.013 239.803 151.115 235.57 149.587 231.053 148.485 226.24 147.868 225.026 147.826 223.696 147.846 222.286 147.903 220.828 147.976 219.356 148.038 217.906 148.068 216.51 148.04 215.204 147.932 214.02 147.719 212.994 147.378 213.467 147.361 213.927 147.331 214.373 147.287 214.803 147.226 215.214 147.147 215.605 147.047 215.973 146.924 216.316 146.776 216.633 146.601 216.92 146.397 213.515 142.54 209.897 138.897 206.077 135.457 202.068 132.205 197.883 129.13 193.533 126.221 189.03 123.463 184.387 120.846 179.616 118.356 174.73 115.981 175.268 115.766 175.801 115.737 176.335 115.855 176.877 116.079 177.432 116.371 178.006 116.69 178.605 116.998 179.236 117.254 179.904 117.419 180.616 117.454 180.996 116.557 181.419 115.705 181.876 114.886 182.354 114.089 182.842 113.302 183.329 112.514 183.803 111.712 184.252 110.886 184.665 110.024 185.031 109.114 183.757 108.083 182.462 107.073 181.147 106.083 179.81 105.115 178.451 104.168 177.068 103.245 175.662 102.345 174.232 101.469 172.777 100.619 171.296 99.7934 171.367 102.008 171.6 104.172 171.944 106.296 172.35 108.39 172.766 110.464 173.144 112.528 173.432 114.592 173.581 116.667 173.539 118.762 173.258 120.888 171.393 120.35 169.618 119.721 167.909 119.027 166.238 118.294 164.581 117.547 162.912 116.812 161.205 116.116 159.434 115.483 157.573 114.939 155.598 114.511 155.304 116.664 155.329 118.699 155.62 120.632 156.122 122.479 156.78 124.256 157.54 125.98 158.346 127.666 159.146 129.331 159.883 130.991 160.504 132.663 158.54 135.064 156.377 137.267 154.041 139.297 151.558 141.18 148.952 142.941 146.25 144.606 143.478 146.2 140.661 147.749 137.824 149.279 134.994 150.814 136.79 152.317 138.52 153.91 140.162 155.601 141.692 157.399 143.089 159.312 144.329 161.351 145.388 163.523 146.245 165.837 146.876 168.302 147.258 170.927 147.251 175.981 146.342 180.607 144.666 184.831 142.357 188.677 139.549 192.172 136.376 195.342 132.974 198.211 129.476 200.804 126.016 203.148 122.73 205.268 123.054 210.781 123.589 216.085 124.324 221.187 125.255 226.094 126.372 230.815 127.669 235.355 129.138 239.724 130.772 243.928 132.563 247.975 134.504 251.873 143.32 251.81 151.745 251.357 159.789 250.522 167.46 249.313 174.766 247.74 181.716 245.81 188.319 243.533 194.583 240.917 200.517 237.971 206.129 234.702 209.378 225.737 213.013 217.156 217.087 209.015 221.656 201.369 226.775 194.273 232.499 187.782 238.883 181.95 245.982 176.833 253.85 172.486 262.543 168.962 262.543 168.962 262.543 168.962 262.543 168.962 262.543 168.962 262.543 168.962 262.543 168.962 262.543 168.962 262.543 168.962 262.543 168.962 262.543 168.962M226.239 146.887 226.154 142.493 225.675 138.052 224.829 133.629 223.645 129.289 222.151 125.097 220.376 121.118 218.348 117.416 216.096 114.056 213.647 111.102 211.031 108.621 208.467 107.165 205.437 106.508 202.089 106.559 198.569 107.223 195.025 108.409 191.604 110.025 188.452 111.976 185.718 114.172 183.547 116.518 182.087 118.923 186.64 120.895 190.925 123.135 194.974 125.611 198.819 128.291 202.491 131.144 206.022 134.138 209.444 137.24 212.788 140.42 216.086 143.646 219.37 146.886 220.058 146.886 220.745 146.886 221.433 146.886 222.12 146.886 222.806 146.887 223.493 146.887 224.18 146.887 224.866 146.887 225.553 146.887 226.239 146.887 226.239 146.887 226.239 146.887 226.239 146.887 226.239 146.887 226.239 146.887 226.239 146.887 226.239 146.887 226.239 146.887 226.239 146.887 226.239 146.887M203.674 334.286 207.792 329.873 211.545 324.85 214.936 319.293 217.966 313.28 220.639 306.889 222.954 300.198 224.916 293.284 226.525 286.225 227.783 279.099 228.693 271.983 223.497 274.384 217.524 276.135 210.964 277.279 204.005 277.861 196.836 277.924 189.644 277.511 182.619 276.667 175.948 275.435 169.822 273.859 164.427 271.983 164.772 274.421 164.922 276.85 164.898 279.259 164.718 281.635 164.403 283.967 163.972 286.243 163.445 288.451 162.841 290.579 162.181 292.615 161.483 294.548 160.983 295.904 160.483 297.281 159.971 298.649 159.436 299.977 158.866 301.233 158.251 302.386 157.579 303.405 156.838 304.258 156.017 304.914 155.106 305.341 155.789 303.499 156.589 301.659 157.459 299.815 158.351 297.959 159.216 296.085 160.009 294.186 160.679 292.256 161.18 290.288 161.464 288.275 161.483 286.21 157.68 286.822 154.053 287.61 150.612 288.585 147.367 289.756 144.327 291.131 141.502 292.721 138.9 294.536 136.533 296.584 134.41 298.874 132.539 301.418 134.377 308.146 136.8 314.508 139.809 320.438 143.403 325.866 147.579 330.725 152.339 334.947 157.679 338.463 163.601 341.205 170.102 343.106 177.181 344.098 180.651 344.179 183.927 343.945 187.011 343.425 189.911 342.65 192.63 341.648 195.172 340.45 197.543 339.085 199.747 337.583 201.789 335.973 203.674 334.286 203.674 334.286 203.674 334.286 203.674 334.286 203.674 334.286 203.674 334.286 203.674 334.286 203.674 334.286 203.674 334.286 203.674 334.286 203.674 334.286M172.276 114.509 171.913 113.156 171.66 111.693 171.478 110.158 171.328 108.591 171.169 107.033 170.961 105.524 170.664 104.104 170.239 102.812 169.645 101.688 168.843 100.773 168.383 101.541 167.817 102.202 167.174 102.786 166.484 103.322 165.774 103.839 165.075 104.365 164.414 104.931 163.822 105.564 163.326 106.294 162.956 107.15 163.743 108.032 164.542 108.902 165.36 109.752 166.205 110.575 167.084 111.364 168.007 112.109 168.979 112.804 170.01 113.441 171.106 114.012 172.276 114.509 172.276 114.509 172.276 114.509 172.276 114.509 172.276 114.509 172.276 114.509 172.276 114.509 172.276 114.509 172.276 114.509 172.276 114.509 172.276 114.509M172.767 119.415 172.28 117.94 171.583 116.675 170.714 115.582 169.709 114.623 168.608 113.762 167.447 112.961 166.263 112.182 165.095 111.388 163.98 110.541 162.955 109.604 163.007 110.392 162.927 111.048 162.743 111.6 162.485 112.078 162.182 112.51 161.862 112.925 161.554 113.353 161.287 113.822 161.09 114.361 160.992 114.999 162.274 115.337 163.488 115.742 164.651 116.199 165.779 116.691 166.889 117.2 167.999 117.709 169.125 118.203 170.284 118.663 171.492 119.073 172.767 119.415 172.767 119.415 172.767 119.415 172.767 119.415 172.767 119.415 172.767 119.415 172.767 119.415 172.767 119.415 172.767 119.415 172.767 119.415 172.767 119.415M158.54 106.169 159.263 105.518 160.047 104.929 160.855 104.363 161.647 103.782 162.387 103.147 163.034 102.421 163.551 101.564 163.9 100.539 164.041 99.3067 163.936 97.8292 163.274 97.1258 162.47 96.6726 161.56 96.4385 160.579 96.3925 159.56 96.5032 158.538 96.7397 157.547 97.0707 156.622 97.4652 155.797 97.892 155.107 98.3199 154.316 97.9087 153.601 97.6204 152.949 97.4555 152.349 97.4143 151.79 97.4974 151.261 97.7051 150.75 98.0379 150.247 98.4963 149.741 99.0806 149.219 99.7913 150.02 99.8735 150.903 99.8736 151.836 99.8237 152.787 99.7559 153.723 99.7023 154.614 99.6951 155.425 99.7663 156.126 99.9481 156.685 100.273 157.068 100.772 155.851 103.512 154.389 106.05 152.696 108.356 150.785 110.4 148.669 112.152 146.362 113.582 143.876 114.661 141.226 115.358 138.424 115.644 135.484 115.489 132.67 114.82 129.924 113.587 127.299 111.865 124.849 109.729 122.627 107.255 120.689 104.517 119.087 101.59 117.876 98.5507 117.11 95.4727 116.843 92.4315 117.607 87.1741 119.73 82.5933 122.952 78.5751 127.015 75.0053 131.662 71.77 136.634 68.7552 141.674 65.8468 146.523 62.9307 150.923 59.8929 154.616 56.6195 155.476 55.6849 156.357 54.6638 157.243 53.5725 158.114 52.4274 158.951 51.2446 159.735 50.0406 160.448 48.8315 161.072 47.6337 161.587 46.4634 161.974 45.3369 162.37 43.522 162.548 41.5995 162.51 39.6424 162.253 37.7238 161.778 35.9167 161.082 34.2941 160.167 32.9291 159.029 31.8947 157.67 31.264 156.087 31.1101 154.814 31.3947 153.751 32.0155 152.858 32.8922 152.09 33.9446 151.406 35.0923 150.763 36.255 150.118 37.3525 149.428 38.3043 148.652 39.0302 147.746 39.4499 144.958 44.6792 141.028 49.5168 136.346 54.1563 131.304 58.7912 126.293 63.6149 121.702 68.8209 117.923 74.6028 115.348 81.154 114.366 88.6681 115.368 97.3385 115.605 98.2407 115.921 99.2309 116.307 100.287 116.755 101.386 117.257 102.506 117.804 103.625 118.388 104.72 118.999 105.77 119.631 106.75 120.274 107.64 121.651 109.274 123.336 110.989 125.287 112.718 127.462 114.392 129.819 115.941 132.314 117.298 134.907 118.392 137.554 119.156 140.212 119.52 142.841 119.415 144.51 118.978 146.005 118.232 147.392 117.28 148.734 116.225 150.099 115.171 151.55 114.22 153.152 113.478 154.971 113.046 157.073 113.028 159.521 113.528 159.803 113.125 160.108 112.743 160.42 112.368 160.722 111.984 161 111.575 161.239 111.126 161.422 110.622 161.534 110.047 161.559 109.385 161.483 108.622 161.532 108.034 161.386 107.641 161.09 107.399 160.687 107.263 160.222 107.188 159.741 107.129 159.287 107.043 158.906 106.884 158.642 106.607 158.54 106.169 158.54 106.169 158.54 106.169 158.54 106.169 158.54 106.169 158.54 106.169 158.54 106.169 158.54 106.169 158.54 106.169 158.54 106.169 158.54 106.169M162.465 284.738 162.719 283.619 162.884 282.41 162.975 281.128 163.01 279.789 163.005 278.41 162.976 277.007 162.94 275.597 162.913 274.197 162.913 272.823 162.955 271.492 158.775 272.071 154.847 272.903 151.156 273.97 147.686 275.258 144.419 276.749 141.34 278.428 138.433 280.279 135.681 282.286 133.068 284.432 130.577 286.701 130.571 287.983 130.603 289.227 130.673 290.433 130.778 291.603 130.917 292.74 131.087 293.845 131.288 294.921 131.516 295.968 131.77 296.988 132.048 297.984 134.192 296.23 136.503 294.429 138.993 292.634 141.674 290.899 144.558 289.277 147.658 287.822 150.987 286.587 154.556 285.626 158.378 284.992 162.465 284.738 162.465 284.738 162.465 284.738 162.465 284.738 162.465 284.738 162.465 284.738 162.465 284.738 162.465 284.738 162.465 284.738 162.465 284.738 162.465 284.738M157.559 61.5272 157.983 60.9267 158.394 60.235 158.762 59.4793 159.055 58.6864 159.244 57.8833 159.298 57.0969 159.187 56.3544 158.881 55.6825 158.348 55.1083 157.559 54.6588 154.342 58.5076 150.593 61.8234 146.46 64.7553 142.093 67.452 137.639 70.0626 133.249 72.7361 129.07 75.6214 125.252 78.8674 121.944 82.623 119.294 87.0373 120.846 87.2645 122.065 87.16 123.005 86.776 123.718 86.165 124.257 85.3792 124.673 84.4709 125.019 83.4926 125.348 82.4965 125.711 81.5349 126.162 80.6603 126.775 80.8355 127.319 80.9372 127.813 80.9783 128.278 80.9718 128.734 80.9307 129.199 80.8679 129.695 80.7966 130.24 80.7295 130.855 80.6798 131.559 80.6603 132.096 80.2167 132.522 79.6624 132.863 79.0227 133.145 78.3231 133.392 77.5888 133.629 76.8451 133.883 76.1173 134.178 75.4307 134.539 74.8107 134.992 74.2826 135.632 74.3338 136.234 74.3474 136.804 74.3289 137.347 74.2844 137.871 74.2194 138.38 74.1399 138.88 74.0516 139.378 73.9603 139.879 73.8718 140.389 73.7919 140.827 73.4448 141.179 73.012 141.466 72.5137 141.707 71.97 141.923 71.4012 142.135 70.8274 142.361 70.2688 142.623 69.7455 142.94 69.2777 143.333 68.8856 144.107 69.035 144.86 69.1528 145.591 69.2343 146.302 69.2749 146.993 69.2698 147.667 69.2144 148.324 69.104 148.964 68.9338 149.59 68.6993 150.201 68.3956 150.467 67.8769 150.708 67.333 150.928 66.7675 151.129 66.1841 151.317 65.5862 151.493 64.9777 151.663 64.362 151.829 63.7429 151.994 63.1238 152.163 62.5086 152.867 62.5752 153.502 62.5719 154.079 62.5113 154.61 62.4058 155.11 62.2678 155.589 62.1098 156.062 61.9443 156.539 61.7838 157.034 61.6406 157.559 61.5272 157.559 61.5272 157.559 61.5272 157.559 61.5272 157.559 61.5272 157.559 61.5272 157.559 61.5272 157.559 61.5272 157.559 61.5272 157.559 61.5272 157.559 61.5272M159.522 132.17 158.608 130.728 157.765 129.217 156.992 127.635 156.291 125.982 155.662 124.257 155.107 122.458 154.625 120.585 154.219 118.636 153.888 116.611 153.635 114.509 150.121 116.784 146.553 119.005 142.953 121.194 139.345 123.375 135.752 125.57 132.196 127.802 128.7 130.095 125.288 132.471 121.982 134.954 118.805 137.566 118.805 138.302 118.805 139.038 118.805 139.774 118.805 140.51 118.805 141.246 118.805 141.981 118.805 142.717 118.805 143.453 118.805 144.189 118.805 144.924 120.436 145.305 122.073 145.68 123.704 146.061 125.318 146.459 126.903 146.885 128.449 147.35 129.944 147.866 131.378 148.444 132.737 149.095 134.012 149.83 136.909 148.411 139.776 146.961 142.596 145.464 145.35 143.901 148.021 142.255 150.592 140.508 153.045 138.644 155.363 136.645 157.528 134.492 159.522 132.17 159.522 132.17 159.522 132.17 159.522 132.17 159.522 132.17 159.522 132.17 159.522 132.17 159.522 132.17 159.522 132.17 159.522 132.17 159.522 132.17M117.333 206.737 121.291 204.598 125.418 202.181 129.561 199.472 133.57 196.453 137.291 193.108 140.573 189.421 143.264 185.375 145.213 180.955 146.268 176.144 146.276 170.925 145.075 165.364 142.773 160.391 139.493 156.066 135.361 152.447 130.501 149.593 125.04 147.563 119.101 146.414 112.81 146.207 106.292 146.999 99.6716 148.849 104.141 151.983 108.084 156.138 111.473 161.154 114.28 166.868 116.477 173.118 118.036 179.742 118.929 186.578 119.128 193.464 118.605 200.238 117.333 206.737 117.333 206.737 117.333 206.737 117.333 206.737 117.333 206.737 117.333 206.737 117.333 206.737 117.333 206.737 117.333 206.737 117.333 206.737 117.333 206.737M137.446 51.2246 138.86 49.7641 140.478 47.9152 142.147 45.7859 143.714 43.4841 145.025 41.1176 145.925 38.7944 146.262 36.6224 145.881 34.7094 144.629 33.1634 142.352 32.0922 139.587 31.7666 137.102 32.3045 134.857 33.5278 132.817 35.2583 130.942 37.318 129.195 39.5286 127.538 41.7122 125.933 43.6905 124.343 45.2855 122.73 46.319 123.12 49.9919 122.855 53.3732 122.02 56.4459 120.702 59.1933 118.989 61.5985 116.967 63.6448 114.722 65.3153 112.342 66.5933 109.912 67.4618 107.521 67.9042 100.826 67.4424 95.5384 64.966 91.6766 60.9664 89.2583 55.9351 88.3011 50.3634 88.8226 44.7429 90.8407 39.565 94.373 35.3212 99.4371 32.5029 106.051 31.6015 106.065 29.0653 106.357 26.8072 106.892 24.791 107.633 22.9809 108.544 21.3408 109.589 19.8348 110.732 18.4268 111.938 17.0808 113.169 15.761 114.39 14.4312 113.867 13.5767 113.124 12.9799 112.214 12.6155 111.189 12.4578 110.102 12.4816 109.004 12.6614 107.949 12.9716 106.988 13.387 106.174 13.882 105.559 14.4312 103.392 12.9031 101.2 11.4176 98.9644 9.99616 96.6664 8.66015 94.2879 7.43103 91.8103 6.33021 89.2153 5.37913 86.4843 4.59921 83.5989 4.01189 80.5406 3.6386 74.6672 3.61871 69.416 4.50929 64.7488 6.21177 60.6274 8.62758 57.0136 11.6582 53.8691 15.2049 51.1556 19.1692 48.835 23.4526 46.869 27.9565 45.2193 32.5822 45.4993 33.1367 45.8909 33.5797 46.3655 33.9396 46.895 34.2445 47.4509 34.5229 48.0049 34.803 48.5285 35.1131 48.9935 35.4817 49.3716 35.9369 49.6342 36.5071 48.9341 36.5821 48.2698 36.4213 47.6454 36.0944 47.0648 35.6716 46.5322 35.2226 46.0516 34.8175 45.6268 34.5262 45.2621 34.4186 44.9613 34.5646 44.7286 35.0343 44.3688 36.1495 44.0852 37.4333 43.8751 38.8479 43.7359 40.3558 43.6648 41.9196 43.6592 43.5016 43.7163 45.0643 43.8337 46.5702 44.0084 47.9816 44.2379 49.2611 44.544 49.6908 44.9691 50.0015 45.48 50.2264 46.0433 50.3989 46.6255 50.5525 47.1934 50.7205 47.7134 50.9364 48.1524 51.2334 48.4769 51.645 48.6535 52.2046 48.1565 52.2112 47.7168 52.1605 47.3216 52.0653 46.9581 51.9384 46.6136 51.7924 46.2753 51.6401 45.9304 51.4943 45.5661 51.3677 45.1698 51.2731 44.7286 51.2232 46.9072 56.846 49.8298 61.7244 53.3835 65.9715 57.4551 69.7005 61.9314 73.0243 66.6996 76.0562 71.6463 78.9092 76.6587 81.6965 81.6234 84.531 86.4276 87.5259 85.9302 86.3558 85.3364 85.282 84.683 84.268 84.0066 83.2768 83.344 82.2717 82.7319 81.216 82.2069 80.0728 81.8058 78.8055 81.5653 77.3772 81.522 75.7512 83.2725 75.2722 85.1116 75.1034 87.0035 75.2054 88.9119 75.5384 90.8009 76.0627 92.6344 76.7387 94.3764 77.5268 95.9907 78.3873 97.4414 79.2805 98.6923 80.1668 96.9949 79.8607 95.3381 79.4123 93.7131 78.8676 92.1113 78.2729 90.5241 77.6744 88.9428 77.1183 87.3587 76.6508 85.7632 76.3181 84.1477 76.1664 82.5034 76.2419 82.9535 77.9997 83.5306 79.6303 84.2191 81.1494 85.0034 82.5727 85.8678 83.9159 86.7966 85.1947 87.7743 86.4246 88.7852 87.6215 89.8136 88.801 90.8439 89.9787 91.3577 89.2818 92.0461 88.5572 92.8744 87.8446 93.8079 87.184 94.8119 86.6153 95.8517 86.1783 96.8927 85.9129 97.9 85.859 98.839 86.0565 99.6751 86.5452 96.2634 87.1992 93.6856 88.7208 91.9216 90.8773 90.951 93.4361 90.7536 96.1644 91.3092 98.8296 92.5975 101.199 94.5984 103.04 97.2914 104.12 100.657 104.206 102.059 103.844 103.212 103.211 104.164 102.368 104.967 101.378 105.671 100.304 106.327 99.2088 106.986 98.1547 107.699 97.2044 108.516 96.4205 109.487 95.8657 109.14 96.8439 108.758 97.786 108.341 98.6936 107.891 99.5682 107.409 100.411 106.898 101.224 106.358 102.009 105.791 102.766 105.198 103.498 104.581 104.206 106.963 106.386 109.194 108.717 111.26 111.214 113.144 113.892 114.832 116.766 116.308 119.852 117.558 123.165 118.564 126.721 119.313 130.535 119.789 134.621 121.895 133.294 123.986 131.951 126.064 130.594 128.129 129.225 130.185 127.847 132.234 126.461 134.277 125.07 136.317 123.676 138.355 122.28 140.394 120.885 135.299 119.36 130.642 117.406 126.459 115.022 122.785 112.203 119.655 108.949 117.105 105.256 115.17 101.122 113.886 96.5462 113.288 91.5245 113.412 86.0552 114.215 81.1313 115.654 76.6441 117.626 72.5499 120.023 68.805 122.741 65.3657 125.674 62.1884 128.717 59.2293 131.764 56.4447 134.709 53.7911 137.446 51.2246 137.446 51.2246 137.446 51.2246 137.446 51.2246 137.446 51.2246 137.446 51.2246 137.446 51.2246 137.446 51.2246 137.446 51.2246 137.446 51.2246 137.446 51.2246M140.39 30.6201 139.693 24.5802 137.179 19.9061 133.308 16.5971 128.543 14.6524 123.346 14.0716 118.177 14.8538 113.5 16.9985 109.775 20.505 107.465 25.3727 107.031 31.6008 109.428 32.049 111.599 32.7235 113.559 33.6085 115.325 34.688 116.913 35.946 118.338 37.3666 119.616 38.9338 120.763 40.6318 121.795 42.4446 122.728 44.3562 124.459 42.9475 126.029 41.3775 127.501 39.7098 128.939 38.0077 130.405 36.3345 131.964 34.7535 133.679 33.3283 135.613 32.122 137.828 31.1982 140.39 30.6201 140.39 30.6201 140.39 30.6201 140.39 30.6201 140.39 30.6201 140.39 30.6201 140.39 30.6201 140.39 30.6201 140.39 30.6201 140.39 30.6201 140.39 30.6201M118.314 200.36 118.229 194.803 117.909 189.482 117.351 184.398 116.552 179.556 115.509 174.957 114.219 170.605 112.68 166.502 110.889 162.651 108.843 159.056 106.54 155.718 103.351 156.998 99.8786 157.875 96.1966 158.386 92.3784 158.566 88.4976 158.452 84.6276 158.08 80.842 157.486 77.2143 156.707 73.818 155.778 70.7266 154.736 70.4122 154.962 70.1792 155.269 69.9989 155.629 69.8422 156.012 69.6804 156.39 69.4845 156.734 69.2257 157.015 68.8751 157.203 68.4039 157.271 67.7831 157.189 68.3774 155.464 68.9754 153.718 69.5341 151.965 70.0111 150.217 70.3636 148.485 70.5489 146.783 70.5243 145.122 70.2471 143.514 69.6748 141.973 68.7645 140.51 66.8727 138.755 64.506 137.611 61.8364 137.045 59.0364 137.022 56.2781 137.509 53.7338 138.472 51.5757 139.876 49.9761 141.687 49.1073 143.872 49.1414 146.397 49.8728 148.246 51.0963 149.446 52.6932 150.085 54.5446 150.253 56.5318 150.04 58.5362 149.535 60.4388 148.829 62.1211 148.01 63.4643 147.17 64.3496 146.397 63.2881 148.287 61.7119 149.777 59.7634 150.855 57.5851 151.51 55.3196 151.73 53.1092 151.503 51.0966 150.819 49.424 149.666 48.2341 148.032 47.6693 145.907 47.6987 144.199 48.0708 142.626 48.7527 141.194 49.7116 139.909 50.9147 138.776 52.329 137.802 53.9218 136.992 55.6603 136.352 57.5115 135.887 59.4426 135.605 58.8043 132.744 58.1645 129.668 57.4542 126.526 56.6046 123.463 55.5469 120.628 54.2122 118.166 52.5317 116.225 50.4365 114.953 47.8577 114.495 44.7265 114.999 44.2261 117.063 44.1854 119.095 44.4859 121.096 45.0093 123.064 45.637 124.998 46.2508 126.898 46.7322 128.762 46.9628 130.59 46.8241 132.381 46.1979 134.133 45.893 134.095 45.7313 133.913 45.6721 133.629 45.675 133.283 45.6995 132.916 45.705 132.567 45.651 132.278 45.4969 132.088 45.2022 132.039 44.7265 132.17 40.5023 131.898 37.2695 133.116 34.9717 135.479 33.5522 138.644 32.9544 142.268 33.1217 146.006 33.9976 149.514 35.5253 152.45 37.6484 154.469 40.3102 155.227 42.3749 154.914 43.8349 154.022 44.7778 152.659 45.2907 150.935 45.4612 148.956 45.3767 146.832 45.1244 144.67 44.7918 142.578 44.4662 140.665 44.2351 139.039 45.4845 140.99 46.3687 143.178 46.8878 145.5 47.0421 147.85 46.8315 150.125 46.2562 152.219 45.3163 154.028 44.0119 155.447 42.3432 156.373 40.3102 156.699 38.3095 156.409 36.6354 155.598 35.2585 154.334 34.1495 152.687 33.2791 150.723 32.618 148.511 32.1368 146.12 31.8062 143.617 31.597 141.07 31.4797 138.547 29.3388 137.799 27.0661 137.304 24.7628 137.1 22.53 137.223 20.4686 137.71 18.6798 138.598 17.2646 139.923 16.3242 141.722 15.9594 144.031 16.2715 146.888 17.4367 148.046 18.8099 148.661 20.3386 148.85 21.9704 148.726 23.6528 148.405 25.3335 148.002 26.9599 147.632 28.4795 147.41 29.8401 147.451 30.989 147.869 30.8937 148.41 30.6816 148.686 30.384 148.764 30.0322 148.71 29.6575 148.592 29.2912 148.474 28.9645 148.424 28.7088 148.507 28.5554 148.79 28.5355 149.34 28.1664 153.223 28.5562 156.556 29.5983 159.405 31.1861 161.839 33.2127 163.922 35.5716 165.721 38.1562 167.304 40.8596 168.736 43.5753 170.085 46.1965 171.417 45.5478 171.611 44.9112 171.613 44.2995 171.479 43.7254 171.264 43.2016 171.025 42.7407 170.817 42.3556 170.696 42.0589 170.719 41.8633 170.94 41.7816 171.417 45.5783 178.272 50.5853 184.498 56.6703 190 63.7007 194.684 71.5439 198.456 80.0674 201.224 89.1386 202.892 98.6252 203.366 108.394 202.554 118.314 200.36 118.314 200.36 118.314 200.36 118.314 200.36 118.314 200.36 118.314 200.36 118.314 200.36 118.314 200.36 118.314 200.36 118.314 200.36 118.314 200.36M107.521 204.284 108.257 205.777 109.298 206.863 110.554 207.554 111.936 207.862 113.354 207.799 114.717 207.376 115.935 206.605 116.918 205.498 117.577 204.067 117.822 202.322 116.785 202.512 115.751 202.703 114.718 202.897 113.687 203.092 112.657 203.288 111.628 203.486 110.6 203.685 109.573 203.884 108.547 204.084 107.521 204.284 107.521 204.284 107.521 204.284 107.521 204.284 107.521 204.284 107.521 204.284 107.521 204.284 107.521 204.284 107.521 204.284 107.521 204.284 107.521 204.284M103.596 66.9228 110.256 66.4456 115.379 63.9195 118.977 59.8705 121.064 54.8247 121.654 49.308 120.76 43.8465 118.396 38.9662 114.575 35.1932 109.31 33.0534 102.615 33.0729 97.5116 34.7721 93.6432 37.687 90.9802 41.5022 89.4928 45.9023 89.1515 50.5719 89.9264 55.1956 91.7881 59.458 94.7066 63.0436 98.6524 65.637 103.596 66.9228 103.596 66.9228 103.596 66.9228 103.596 66.9228 103.596 66.9228 103.596 66.9228 103.596 66.9228 103.596 66.9228 103.596 66.9228 103.596 66.9228 103.596 66.9228M105.067 154.736 104.253 153.126 102.966 151.76 101.355 150.702 99.5648 150.015 97.7432 149.761 96.0365 150.003 94.5914 150.804 93.5546 152.226 93.0727 154.334 93.2925 157.188 94.6941 157.168 96.0249 157.077 97.2929 156.922 98.5058 156.712 99.6715 156.455 100.798 156.159 101.893 155.831 102.964 155.479 104.02 155.111 105.067 154.736 105.067 154.736 105.067 154.736 105.067 154.736 105.067 154.736 105.067 154.736 105.067 154.736 105.067 154.736 105.067 154.736 105.067 154.736 105.067 154.736M48.1607 22.281 48.674 20.7537 49.3872 19.3157 50.248 17.9544 51.2041 16.6574 52.2031 15.4122 53.1927 14.2064 54.1205 13.0273 54.9342 11.8626 55.5814 10.6998 56.0098 9.5263 53.1424 8.8057 50.476 8.6034 48.0392 8.89139 45.8607 9.64164 43.9692 10.8261 42.3934 12.4168 41.162 14.3856 40.3036 16.7046 39.847 19.3458 39.8209 22.281 40.6239 22.0517 41.4368 21.9058 42.2583 21.8312 43.0874 21.8157 43.9231 21.8471 44.7641 21.9132 45.6095 22.0018 46.4581 22.1008 47.3089 22.1979 48.1607 22.281 48.1607 22.281 48.1607 22.281 48.1607 22.281 48.1607 22.281 48.1607 22.281 48.1607 22.281 48.1607 22.281 48.1607 22.281 48.1607 22.281 48.1607 22.281M44.2358 31.1115 44.4475 30.2431 44.7025 29.4185 44.9916 28.6283 45.3052 27.863 45.6341 27.1131 45.969 26.3691 46.3003 25.6214 46.6188 24.8606 46.9152 24.0772 47.18 23.2617 46.2766 23.1848 45.4849 23.1249 44.777 23.0822 44.1249 23.0566 43.5007 23.048 42.8765 23.0566 42.2243 23.0822 41.5163 23.1249 40.7245 23.1848 39.8209 23.2617 39.986 24.3241 40.1873 25.3499 40.4343 26.3298 40.7364 27.2543 41.103 28.114 41.5437 28.8995 42.0679 29.6015 42.685 30.2104 43.4045 30.7169 44.2358 31.1115 44.2358 31.1115 44.2358 31.1115 44.2358 31.1115 44.2358 31.1115 44.2358 31.1115 44.2358 31.1115 44.2358 31.1115 44.2358 31.1115 44.2358 31.1115 44.2358 31.1115M38.8402 24.2431 36.103 25.7165 34.3578 27.9903 33.4934 30.8376 33.3987 34.032 33.9624 37.3467 35.0734 40.555 36.6203 43.4302 38.492 45.7458 40.5774 47.275 42.7651 47.7911 42.4611 46.3841 42.273 44.8801 42.1907 43.31 42.2044 41.705 42.3041 40.0958 42.48 38.5136 42.722 36.9893 43.0203 35.5539 43.3648 34.2383 43.7458 33.0736 43.0422 32.4039 42.3643 31.7082 41.7203 30.9785 41.1182 30.2068 40.5661 29.3849 40.0722 28.505 39.6446 27.5589 39.2913 26.5385 39.0205 25.436 38.8402 24.2431 38.8402 24.2431 38.8402 24.2431 38.8402 24.2431 38.8402 24.2431 38.8402 24.2431 38.8402 24.2431 38.8402 24.2431 38.8402 24.2431 38.8402 24.2431 38.8402 24.2431M143.421 89.2731 142.946 88.2038 142.462 86.9325 141.984 85.5079 141.523 83.9785 141.094 82.3928 140.709 80.7995 140.383 79.2471 140.127 77.7843 139.957 76.4595 139.884 75.3214 139.941 75.1782 140.099 75.0075 140.336 74.8147 140.631 74.605 140.963 74.3837 141.311 74.1563 141.654 73.928 141.97 73.704 142.239 73.4898 142.44 73.2907 142.472 74.9774 142.568 76.7337 142.727 78.5225 142.949 80.3065 143.231 82.0486 143.573 83.7115 143.974 85.258 144.433 86.6509 144.949 87.853 145.52 88.8272 145.315 88.8087 145.125 88.8435 144.944 88.9169 144.766 89.014 144.585 89.1202 144.395 89.2209 144.189 89.3012 143.962 89.3465 143.708 89.342 143.421 89.2731 143.421 89.2731 143.421 89.2731 143.421 89.2731 143.421 89.2731 143.421 89.2731 143.421 89.2731 143.421 89.2731 143.421 89.2731 143.421 89.2731 143.421 89.2731M332.695 213.604 332.919 218.584 332.832 223.414 332.468 228.11 331.858 232.691 331.035 237.174 330.03 241.576 328.876 245.917 327.606 250.212 326.251 254.48 324.845 258.739 317.828 258.839 311.224 258.526 305.022 257.811 299.209 256.706 293.775 255.223 288.707 253.374 283.993 251.17 279.623 248.623 275.583 245.746 271.863 242.549 272.238 240.933 272.644 239.238 273.056 237.477 273.445 235.662 273.786 233.808 274.051 231.927 274.215 230.033 274.249 228.137 274.128 226.255 273.825 224.398 273.224 225.148 272.84 226.036 272.624 227.038 272.53 228.129 272.51 229.285 272.517 230.482 272.503 231.695 272.421 232.9 272.224 234.074 271.863 235.19 271.26 236.192 270.237 237.445 268.887 238.886 267.303 240.452 265.58 242.079 263.809 243.705 262.085 245.265 260.501 246.698 259.151 247.94 258.126 248.927 254.037 252.9 249.676 256.776 245.036 260.49 240.111 263.976 234.893 267.168 229.375 269.999 223.55 272.403 217.411 274.316 210.951 275.669 204.163 276.398 196.392 276.548 188.844 276.113 181.572 275.107 174.629 273.546 168.068 271.444 161.942 268.816 156.303 265.676 151.204 262.041 146.7 257.924 142.841 253.341 150.096 252.893 157.138 252.233 163.951 251.344 170.515 250.206 176.813 248.803 182.827 247.115 188.537 245.124 193.927 242.812 198.978 240.161 203.672 237.152 204.211 236.869 204.585 236.775 204.832 236.834 204.989 237.011 205.093 237.273 205.181 237.584 205.292 237.909 205.461 238.214 205.727 238.464 206.126 238.624 207.855 233.442 209.698 228.368 211.668 223.408 213.779 218.57 216.044 213.862 218.478 209.29 221.094 204.861 223.904 200.584 226.923 196.464 230.165 192.509 233.421 188.935 236.935 185.457 240.711 182.13 244.752 179.006 249.064 176.138 253.649 173.579 258.511 171.382 263.656 169.599 269.086 168.285 274.805 167.49 284.128 167.332 292.88 168.482 300.981 170.847 308.35 174.334 314.906 178.849 320.571 184.301 325.262 190.595 328.9 197.639 331.405 205.34 332.695 213.604 332.695 213.604 332.695 213.604 332.695 213.604 332.695 213.604 332.695 213.604 332.695 213.604 332.695 213.604 332.695 213.604 332.695 213.604 332.695 213.604M270.882 244.51 274.807 247.504 278.988 250.241 283.443 252.703 288.192 254.872 293.252 256.729 298.642 258.256 304.379 259.435 310.483 260.247 316.972 260.675 323.864 260.7 323.483 261.791 323.068 262.848 322.627 263.878 322.166 264.889 321.695 265.889 321.22 266.887 320.75 267.889 320.293 268.904 319.856 269.939 319.448 271.002 312.17 271.602 305.332 271.568 298.935 270.934 292.979 269.74 287.462 268.021 282.385 265.815 277.747 263.158 273.548 260.087 269.788 256.639 266.466 252.851 267.056 252.166 267.606 251.441 268.12 250.68 268.6 249.884 269.048 249.056 269.466 248.198 269.856 247.312 270.22 246.401 270.562 245.466 270.882 244.51 270.882 244.51 270.882 244.51 270.882 244.51 270.882 244.51 270.882 244.51 270.882 244.51 270.882 244.51 270.882 244.51 270.882 244.51 270.882 244.51M300.316 71.3391 300.923 73.5441 300.889 75.4876 300.3 77.186 299.246 78.656 297.814 79.914 296.091 80.9766 294.166 81.8604 292.125 82.5818 290.058 83.1574 288.051 83.6038 285.506 86.9065 283.245 90.4052 281.213 94.0619 279.357 97.8386 277.624 101.697 275.96 105.6 274.311 109.508 272.624 113.384 270.844 117.19 268.919 120.888 266.814 124.481 264.589 127.909 262.253 131.188 259.812 134.334 257.275 137.363 254.649 140.29 251.942 143.132 249.161 145.904 246.314 148.623 243.408 151.304 241.985 150.716 240.553 150.138 239.103 149.577 237.626 149.043 236.113 148.544 234.557 148.089 232.947 147.687 231.275 147.347 229.533 147.078 227.711 146.888 227.456 142.727 227.002 138.766 226.358 134.995 225.536 131.402 224.544 127.978 223.394 124.713 222.095 121.597 220.658 118.619 219.092 115.77 217.408 113.038 222.484 110.854 227.315 108.424 231.872 105.72 236.126 102.714 240.05 99.3771 243.615 95.6809 246.792 91.5971 249.552 87.0972 251.868 82.1527 253.711 76.7354 253.417 74.6319 253.373 72.5779 253.565 70.5953 253.974 68.7058 254.585 66.9312 255.381 65.2934 256.346 63.8141 257.463 62.5153 258.716 61.4185 260.088 60.5458 260.083 60.9924 260.098 61.4188 260.134 61.8241 260.193 62.2071 260.274 62.5668 260.38 62.9022 260.512 63.2121 260.669 63.4957 260.854 63.7518 261.068 63.9793 261.427 61.9821 261.358 60.2372 260.963 58.6814 260.345 57.2518 259.604 55.8852 258.843 54.5186 258.164 53.089 257.668 51.5332 257.458 49.7883 257.635 47.7911 257.793 47.2035 258.05 46.575 258.402 45.9289 258.842 45.2887 259.365 44.6779 259.965 44.1199 260.638 43.6382 261.377 43.2562 262.177 42.9975 263.033 42.8855 265.905 43.467 268.191 45.2513 270.05 47.9719 271.643 51.3624 273.131 55.1562 274.675 59.0869 276.435 62.888 278.571 66.2929 281.245 69.0352 284.617 70.8484 286.415 71.312 288.047 71.4864 289.557 71.4457 290.988 71.2636 292.383 71.0139 293.784 70.7707 295.235 70.6078 296.779 70.5989 298.458 70.8181 300.316 71.3391 300.316 71.3391 300.316 71.3391 300.316 71.3391 300.316 71.3391 300.316 71.3391 300.316 71.3391 300.316 71.3391 300.316 71.3391 300.316 71.3391 300.316 71.3391M273.335 53.1874 275.669 51.4368 277.844 50.7986 279.763 51.075 281.326 52.0684 282.437 53.5812 282.996 55.4156 282.905 57.3742 282.067 59.2592 280.381 60.873 277.752 62.0179 277.292 61.1524 276.864 60.2555 276.458 59.3374 276.062 58.4086 275.667 57.4793 275.261 56.5598 274.836 55.6606 274.38 54.7919 273.883 53.964 273.335 53.1874 273.335 53.1874 273.335 53.1874 273.335 53.1874 273.335 53.1874 273.335 53.1874 273.335 53.1874 273.335 53.1874 273.335 53.1874 273.335 53.1874 273.335 53.1874M254.202 63.9786 253.951 64.9053 253.667 65.7982 253.362 66.6705 253.05 67.5352 252.743 68.4056 252.454 69.2946 252.198 70.2154 251.986 71.1811 251.832 72.2049 251.749 73.2998 250.915 72.4665 249.89 71.8243 248.72 71.3261 247.454 70.9246 246.138 70.5726 244.819 70.223 243.546 69.8285 242.364 69.342 241.322 68.7163 240.467 67.9042 240.506 65.8698 241.117 64.379 242.194 63.3647 243.637 62.7599 245.342 62.4977 247.206 62.5109 249.127 62.7326 251.002 63.0958 252.728 63.5335 254.202 63.9786 254.202 63.9786 254.202 63.9786 254.202 63.9786 254.202 63.9786 254.202 63.9786 254.202 63.9786 254.202 63.9786 254.202 63.9786 254.202 63.9786 254.202 63.9786M226.239 147.868 231.053 148.485 235.569 149.586 239.802 151.115 243.764 153.013 247.467 155.223 250.923 157.689 254.147 160.353 257.149 163.158 259.943 166.047 262.542 168.962 253.849 172.486 245.981 176.833 238.883 181.95 232.499 187.782 226.775 194.273 221.655 201.369 217.086 209.015 213.011 217.155 209.376 225.736 206.126 234.701 200.513 237.969 194.58 240.915 188.316 243.531 181.713 245.808 174.763 247.738 167.457 249.311 159.787 250.519 151.743 251.354 143.317 251.807 134.501 251.87 132.56 247.973 130.769 243.926 129.135 239.722 127.666 235.353 126.369 230.812 125.252 226.092 124.322 221.185 123.586 216.083 123.052 210.779 122.727 205.266 126.013 203.146 129.473 200.802 132.971 198.209 136.373 195.34 139.546 192.171 142.354 188.675 144.663 184.829 146.339 180.605 147.248 175.979 147.256 170.925 146.873 168.3 146.242 165.835 145.386 163.52 144.326 161.348 143.086 159.31 141.689 157.396 140.159 155.598 138.517 153.908 136.786 152.315 134.991 150.812 137.821 149.277 140.657 147.747 143.475 146.198 146.247 144.604 148.949 142.939 151.554 141.178 154.038 139.295 156.374 137.265 158.536 135.062 160.5 132.661 159.879 130.989 159.142 129.329 158.342 127.664 157.536 125.978 156.776 124.254 156.118 122.477 155.616 120.63 155.325 118.697 155.3 116.662 155.595 114.509 157.57 114.937 159.43 115.481 161.201 116.113 162.908 116.81 164.578 117.545 166.235 118.292 167.905 119.025 169.615 119.719 171.39 120.348 173.255 120.886 173.536 118.76 173.577 116.665 173.428 114.59 173.14 112.526 172.763 110.462 172.346 108.388 171.94 106.294 171.596 104.17 171.363 102.006 171.292 99.7913 172.773 100.617 174.228 101.468 175.658 102.344 177.064 103.244 178.447 104.167 179.806 105.113 181.143 106.081 182.459 107.071 183.753 108.081 185.027 109.112 184.661 110.021 184.248 110.884 183.799 111.71 183.325 112.511 182.839 113.3 182.351 114.087 181.872 114.884 181.415 115.703 180.991 116.555 180.612 117.452 179.9 117.417 179.232 117.253 178.601 116.997 178.002 116.689 177.428 116.37 176.874 116.078 176.332 115.853 175.798 115.736 175.265 115.764 174.726 115.979 179.613 118.353 184.383 120.843 189.026 123.461 193.529 126.218 197.879 129.128 202.064 132.203 206.073 135.454 209.893 138.895 213.511 142.538 216.916 146.394 216.629 146.599 216.312 146.773 215.969 146.921 215.601 147.045 215.211 147.145 214.8 147.224 214.37 147.285 213.924 147.329 213.464 147.359 212.991 147.376 214.018 147.718 215.202 147.931 216.509 148.04 217.905 148.068 219.355 148.038 220.827 147.976 222.285 147.904 223.696 147.846 225.025 147.826 226.239 147.868 226.239 147.868 226.239 147.868 226.239 147.868 226.239 147.868 226.239 147.868 226.239 147.868 226.239 147.868 226.239 147.868 226.239 147.868 226.239 147.868M211.032 108.623 213.648 111.104 216.096 114.057 218.349 117.417 220.377 121.119 222.152 125.098 223.645 129.29 224.829 133.63 225.675 138.052 226.155 142.493 226.24 146.887 225.553 146.887 224.867 146.887 224.18 146.887 223.493 146.887 222.807 146.887 222.12 146.887 221.433 146.887 220.746 146.887 220.059 146.887 219.372 146.887 216.088 143.647 212.789 140.422 209.445 137.242 206.024 134.139 202.493 131.145 198.821 128.293 194.976 125.613 190.927 123.136 186.641 120.896 182.088 118.924 183.548 116.519 185.718 114.172 188.453 111.977 191.604 110.025 195.026 108.41 198.57 107.224 202.089 106.56 205.438 106.51 208.468 107.166 211.032 108.623 211.032 108.623 211.032 108.623 211.032 108.623 211.032 108.623 211.032 108.623 211.032 108.623 211.032 108.623 211.032 108.623 211.032 108.623 211.032 108.623M228.693 271.984 227.783 279.1 226.525 286.226 224.916 293.285 222.954 300.199 220.638 306.89 217.966 313.281 214.935 319.294 211.544 324.851 207.791 329.875 203.674 334.288 201.789 335.975 199.747 337.585 197.543 339.086 195.172 340.451 192.63 341.649 189.911 342.651 187.012 343.426 183.927 343.946 180.652 344.18 177.182 344.098 170.102 343.107 163.601 341.206 157.68 338.464 152.339 334.948 147.58 330.726 143.403 325.867 139.81 320.438 136.801 314.509 134.377 308.146 132.54 301.419 134.411 298.875 136.535 296.584 138.902 294.536 141.503 292.722 144.328 291.132 147.368 289.757 150.613 288.586 154.054 287.611 157.681 286.823 161.484 286.21 161.465 288.275 161.181 290.288 160.679 292.257 160.009 294.187 159.217 296.086 158.351 297.96 157.459 299.817 156.589 301.661 155.789 303.502 155.107 305.344 156.019 304.916 156.839 304.26 157.58 303.407 158.253 302.388 158.868 301.234 159.437 299.978 159.972 298.65 160.484 297.282 160.984 295.905 161.484 294.55 162.181 292.617 162.842 290.58 163.445 288.452 163.972 286.244 164.403 283.968 164.719 281.636 164.899 279.26 164.923 276.851 164.773 274.422 164.428 271.984 169.822 273.86 175.949 275.436 182.619 276.667 189.644 277.511 196.836 277.924 204.005 277.861 210.964 277.279 217.524 276.135 223.497 274.384 228.693 271.984 228.693 271.984 228.693 271.984 228.693 271.984 228.693 271.984 228.693 271.984 228.693 271.984 228.693 271.984 228.693 271.984 228.693 271.984 228.693 271.984M168.842 100.773 169.645 101.689 170.238 102.812 170.664 104.104 170.96 105.525 171.168 107.034 171.327 108.592 171.478 110.158 171.659 111.693 171.912 113.157 172.276 114.509 171.105 114.012 170.009 113.441 168.978 112.804 168.006 112.109 167.084 111.364 166.204 110.575 165.359 109.752 164.541 108.902 163.743 108.032 162.955 107.15 163.325 106.294 163.821 105.564 164.414 104.93 165.074 104.365 165.774 103.838 166.484 103.321 167.174 102.786 167.817 102.202 168.382 101.541 168.842 100.773 168.842 100.773 168.842 100.773 168.842 100.773 168.842 100.773 168.842 100.773 168.842 100.773 168.842 100.773 168.842 100.773 168.842 100.773 168.842 100.773M162.955 109.602 163.98 110.54 165.095 111.387 166.263 112.181 167.447 112.96 168.608 113.762 169.709 114.623 170.714 115.581 171.583 116.674 172.28 117.939 172.767 119.414 171.492 119.071 170.283 118.661 169.124 118.202 167.998 117.708 166.889 117.199 165.778 116.69 164.651 116.198 163.488 115.741 162.274 115.336 160.992 114.999 161.09 114.36 161.287 113.821 161.553 113.352 161.861 112.924 162.182 112.509 162.485 112.076 162.743 111.599 162.927 111.046 163.007 110.391 162.955 109.602 162.955 109.602 162.955 109.602 162.955 109.602 162.955 109.602 162.955 109.602 162.955 109.602 162.955 109.602 162.955 109.602 162.955 109.602 162.955 109.602M163.936 97.8292 164.041 99.3067 163.9 100.539 163.551 101.564 163.034 102.421 162.387 103.147 161.647 103.782 160.855 104.363 160.047 104.929 159.263 105.518 158.54 106.169 158.642 106.607 158.906 106.883 159.287 107.042 159.741 107.129 160.222 107.187 160.687 107.262 161.09 107.399 161.387 107.641 161.533 108.034 161.484 108.622 161.56 109.386 161.534 110.048 161.422 110.623 161.239 111.127 161.001 111.576 160.723 111.985 160.42 112.369 160.109 112.744 159.804 113.126 159.522 113.529 157.073 113.029 154.972 113.046 153.153 113.478 151.55 114.221 150.1 115.171 148.735 116.225 147.393 117.28 146.006 118.233 144.511 118.979 142.841 119.416 140.213 119.521 137.554 119.157 134.907 118.393 132.315 117.299 129.819 115.942 127.463 114.393 125.288 112.719 123.337 110.99 121.651 109.275 120.275 107.642 119.632 106.752 119 105.771 118.388 104.721 117.804 103.626 117.257 102.507 116.755 101.387 116.307 100.287 115.921 99.2316 115.606 98.2414 115.369 97.3392 114.366 88.6688 115.348 81.1547 117.924 74.6035 121.702 68.8216 126.293 63.6156 131.304 58.7919 136.347 54.157 141.028 49.5175 144.959 44.6799 147.747 39.4506 148.653 39.0311 149.429 38.3053 150.118 37.3536 150.763 36.2563 151.406 35.0936 152.09 33.946 152.858 32.8936 153.751 32.0169 154.814 31.3961 156.088 31.1115 157.67 31.2654 159.029 31.8961 160.166 32.9304 161.082 34.2954 161.778 35.918 162.254 37.725 162.51 39.6436 162.549 41.6006 162.37 43.5229 161.975 45.3376 161.587 46.4643 161.072 47.6347 160.449 48.8327 159.735 50.0418 158.951 51.246 158.114 52.4287 157.243 53.5739 156.358 54.6652 155.476 55.6863 154.617 56.6209 150.924 59.8942 146.523 62.9318 141.675 65.8478 136.635 68.7563 131.663 71.7712 127.016 75.0065 122.952 78.5763 119.731 82.5947 117.608 87.1755 116.843 92.4329 117.111 95.4739 117.877 98.5519 119.088 101.592 120.69 104.518 122.628 107.256 124.85 109.73 127.3 111.866 129.925 113.588 132.671 114.821 135.484 115.49 138.425 115.645 141.227 115.359 143.878 114.661 146.363 113.583 148.671 112.153 150.787 110.401 152.698 108.357 154.39 106.051 155.852 103.513 157.069 100.773 156.685 100.273 156.127 99.9485 155.426 99.7666 154.614 99.6953 153.724 99.7025 152.787 99.7561 151.836 99.8239 150.903 99.874 150.021 99.874 149.22 99.792 149.741 99.0811 150.248 98.4967 150.751 98.0383 151.261 97.7055 151.79 97.4978 152.349 97.4148 152.949 97.4561 153.601 97.6211 154.317 97.9094 155.107 98.3206 155.798 97.8926 156.623 97.4658 157.548 97.0712 158.539 96.74 159.561 96.5033 160.579 96.3924 161.561 96.4384 162.47 96.6724 163.274 97.1256 163.936 97.8292 163.936 97.8292 163.936 97.8292 163.936 97.8292 163.936 97.8292 163.936 97.8292 163.936 97.8292 163.936 97.8292 163.936 97.8292 163.936 97.8292 163.936 97.8292M162.955 271.492 162.913 272.823 162.913 274.197 162.939 275.597 162.975 277.007 163.004 278.41 163.01 279.789 162.975 281.128 162.884 282.41 162.719 283.619 162.465 284.738 158.378 284.992 154.556 285.626 150.987 286.587 147.659 287.822 144.558 289.277 141.674 290.899 138.993 292.634 136.504 294.429 134.193 296.23 132.049 297.984 131.771 296.988 131.517 295.967 131.289 294.92 131.089 293.845 130.918 292.74 130.779 291.603 130.674 290.432 130.604 289.227 130.572 287.983 130.578 286.701 133.068 284.432 135.681 282.286 138.433 280.279 141.34 278.428 144.419 276.749 147.686 275.258 151.157 273.97 154.848 272.903 158.775 272.071 162.955 271.492 162.955 271.492 162.955 271.492 162.955 271.492 162.955 271.492 162.955 271.492 162.955 271.492 162.955 271.492 162.955 271.492 162.955 271.492 162.955 271.492M157.559 54.6581 158.348 55.1076 158.881 55.6818 159.187 56.3537 159.298 57.0962 159.244 57.8826 159.055 58.6857 158.762 59.4786 158.394 60.2343 157.983 60.926 157.559 61.5265 157.034 61.6399 156.539 61.7831 156.061 61.9436 155.589 62.1091 155.11 62.267 154.61 62.4049 154.078 62.5104 153.501 62.5709 152.867 62.574 152.163 62.5072 151.994 63.1224 151.828 63.7415 151.663 64.3606 151.493 64.9763 151.317 65.5848 151.129 66.1827 150.927 66.7661 150.708 67.3316 150.467 67.8755 150.201 68.3942 149.59 68.698 148.964 68.9327 148.324 69.1029 147.667 69.2133 146.993 69.2687 146.302 69.2737 145.591 69.233 144.86 69.1514 144.107 69.0336 143.333 68.8842 142.94 69.2763 142.623 69.7442 142.361 70.2675 142.135 70.8262 141.923 71.4001 141.707 71.9689 141.465 72.5126 141.179 73.0108 140.827 73.4435 140.389 73.7905 139.879 73.8704 139.378 73.9589 138.88 74.0502 138.38 74.1385 137.871 74.218 137.348 74.283 136.804 74.3275 136.234 74.346 135.632 74.3324 134.992 74.2812 134.539 74.8093 134.177 75.4293 133.882 76.1159 133.629 76.8437 133.391 77.5874 133.144 78.3217 132.863 79.0213 132.522 79.661 132.095 80.2153 131.559 80.6589 130.855 80.6784 130.24 80.7281 129.695 80.7952 129.199 80.8665 128.734 80.9293 128.278 80.9704 127.813 80.9769 127.319 80.9358 126.775 80.8341 126.162 80.6589 125.712 81.5336 125.348 82.4952 125.02 83.4913 124.673 84.4697 124.258 85.378 123.719 86.1639 123.006 86.7749 122.066 87.1589 120.846 87.2633 119.294 87.0359 121.944 82.6218 125.252 78.8664 129.07 75.6206 133.249 72.7355 137.639 70.0621 142.093 67.4516 146.461 64.7548 150.593 61.823 154.342 58.5071 157.559 54.6581 157.559 54.6581 157.559 54.6581 157.559 54.6581 157.559 54.6581 157.559 54.6581 157.559 54.6581 157.559 54.6581 157.559 54.6581 157.559 54.6581 157.559 54.6581M153.635 114.509 153.888 116.611 154.219 118.636 154.625 120.585 155.107 122.458 155.662 124.257 156.291 125.983 156.992 127.636 157.765 129.217 158.608 130.728 159.522 132.17 157.527 134.493 155.363 136.645 153.045 138.644 150.592 140.509 148.021 142.255 145.35 143.901 142.595 145.464 139.776 146.961 136.909 148.411 134.012 149.83 132.737 149.095 131.377 148.444 129.944 147.866 128.449 147.35 126.903 146.884 125.317 146.458 123.704 146.061 122.073 145.68 120.436 145.305 118.805 144.924 118.805 144.188 118.805 143.452 118.805 142.717 118.805 141.981 118.805 141.245 118.805 140.509 118.805 139.773 118.805 139.037 118.805 138.302 118.805 137.566 121.982 134.954 125.288 132.471 128.7 130.095 132.196 127.803 135.752 125.57 139.346 123.375 142.953 121.195 146.553 119.005 150.121 116.784 153.635 114.509 153.635 114.509 153.635 114.509 153.635 114.509 153.635 114.509 153.635 114.509 153.635 114.509 153.635 114.509 153.635 114.509 153.635 114.509 153.635 114.509M146.276 170.925 146.268 176.144 145.213 180.955 143.264 185.375 140.572 189.421 137.29 193.108 133.569 196.453 129.561 199.472 125.417 202.181 121.291 204.598 117.333 206.737 118.606 200.238 119.129 193.464 118.93 186.578 118.036 179.742 116.477 173.118 114.28 166.868 111.473 161.154 108.084 156.138 104.141 151.983 99.6723 148.849 106.293 146.999 112.811 146.207 119.102 146.414 125.04 147.563 130.501 149.593 135.361 152.447 139.493 156.066 142.773 160.391 145.075 165.364 146.276 170.925 146.276 170.925 146.276 170.925 146.276 170.925 146.276 170.925 146.276 170.925 146.276 170.925 146.276 170.925 146.276 170.925 146.276 170.925 146.276 170.925M142.351 32.0922 144.627 33.1634 145.879 34.7094 146.26 36.6224 145.923 38.7944 145.023 41.1176 143.713 43.4841 142.146 45.7859 140.477 47.9152 138.858 49.7641 137.445 51.2246 134.707 53.7911 131.762 56.4447 128.716 59.2293 125.673 62.1884 122.739 65.3657 120.021 68.805 117.623 72.5499 115.651 76.6441 114.21 81.1313 113.406 86.0552 113.283 91.5247 113.881 96.5466 115.164 101.123 117.099 105.257 119.648 108.949 122.778 112.204 126.452 115.022 130.636 117.407 135.293 119.361 140.388 120.885 138.349 122.28 136.311 123.676 134.271 125.07 132.228 126.461 130.18 127.847 128.124 129.225 126.058 130.594 123.981 131.951 121.89 133.294 119.783 134.621 119.308 130.535 118.559 126.721 117.552 123.165 116.303 119.852 114.827 116.766 113.139 113.892 111.255 111.214 109.189 108.717 106.958 106.386 104.576 104.206 105.193 103.498 105.786 102.766 106.353 102.008 106.893 101.224 107.404 100.411 107.886 99.5676 108.336 98.693 108.753 97.7855 109.135 96.8435 109.482 95.8657 108.511 96.4205 107.694 97.2043 106.982 98.1546 106.323 99.2086 105.667 100.304 104.962 101.378 104.159 102.367 103.207 103.21 102.054 103.844 100.651 104.206 97.2862 104.12 94.5933 103.04 92.5926 101.199 91.3043 98.8296 90.7486 96.1644 90.9459 93.4361 91.9165 90.8773 93.6805 88.7208 96.2583 87.1992 99.6702 86.5452 98.8343 86.0565 97.8954 85.859 96.8882 85.9129 95.8474 86.1783 94.8076 86.6153 93.8037 87.184 92.8702 87.8446 92.0419 88.5572 91.3535 89.2818 90.8397 89.9787 89.8095 88.801 88.7812 87.6215 87.7703 86.4246 86.7925 85.1947 85.8636 83.9159 84.9991 82.5727 84.2148 81.1494 83.5262 79.6303 82.9491 77.9997 82.4992 76.2419 84.1435 76.1664 85.7591 76.3181 87.3546 76.6508 88.9387 77.1183 90.5201 77.6744 92.1073 78.2729 93.7089 78.8676 95.3338 79.4123 96.9904 79.8607 98.6874 80.1668 97.4367 79.2802 95.9862 78.3868 94.372 77.5262 92.6301 76.7381 90.7966 76.0622 88.9077 75.538 86.9993 75.2051 85.1074 75.1033 83.2683 75.2721 81.5178 75.7512 81.5609 77.3769 81.8012 78.805 82.2022 80.0722 82.7271 81.2154 83.3392 82.2712 84.0018 83.2764 84.6781 84.2677 85.3315 85.2819 85.9253 86.3557 86.4227 87.5259 81.6189 84.531 76.6545 81.6965 71.6425 78.9092 66.6959 76.0562 61.9279 73.0243 57.4516 69.7005 53.38 65.9715 49.8262 61.7244 46.9033 56.846 44.7244 51.2232 45.1656 51.2733 45.5619 51.3681 45.9262 51.4948 46.271 51.6406 46.6093 51.7929 46.9538 51.9389 47.3172 52.0658 47.7123 52.1609 48.1518 52.2114 48.6486 52.2046 48.4723 51.645 48.148 51.2334 47.7091 50.9364 47.189 50.7205 46.621 50.5525 46.0386 50.3989 45.4752 50.2264 44.964 50.0015 44.5386 49.6908 44.2323 49.2611 44.0028 47.9816 43.8281 46.5701 43.7108 45.0642 43.6536 43.5014 43.6593 41.9193 43.7304 40.3555 43.8698 38.8476 44.08 37.433 44.3637 36.1494 44.7237 35.0343 44.9561 34.5644 45.2567 34.4182 45.6213 34.5257 46.0461 34.817 46.5268 35.2221 47.0595 35.6711 47.6402 36.094 48.2647 36.4209 48.9291 36.5819 49.6293 36.5071 49.3663 35.9367 48.9882 35.4813 48.5232 35.1127 47.9996 34.8025 47.4458 34.5223 46.8902 34.244 46.3609 33.9391 45.8865 33.5794 45.4951 33.1365 45.2151 32.5822 46.8646 27.9567 48.8305 23.453 51.151 19.1697 53.8644 15.2054 57.0089 11.6586 60.6227 8.62794 64.7442 6.21197 69.4114 4.50927 74.6628 3.61838 80.5364 3.6379 83.5949 4.01119 86.4805 4.59851 89.2116 5.37843 91.8068 6.32951 94.2845 7.43033 96.663 8.65945 98.9609 9.99546 101.197 11.4169 103.389 12.9024 105.555 14.4305 106.17 13.8813 106.984 13.3863 107.945 12.9709 109 12.6607 110.098 12.4809 111.185 12.4571 112.21 12.6148 113.12 12.9792 113.863 13.576 114.386 14.4305 113.165 15.7603 111.934 17.0801 110.729 18.4261 109.586 19.8341 108.54 21.3401 107.629 22.9802 106.888 24.7903 106.353 26.8065 106.061 29.0646 106.046 31.6008 99.4332 32.5024 94.3693 35.3208 90.8372 39.5648 88.8191 44.7427 88.2975 50.3633 89.2546 55.9349 91.6729 60.9662 95.5347 64.9657 100.822 67.4419 107.518 67.9035 109.909 67.4611 112.338 66.5926 114.718 65.3146 116.963 63.6441 118.985 61.5978 120.698 59.1926 122.016 56.4452 122.851 53.3725 123.116 49.9912 122.725 46.3183 124.34 45.2851 125.931 43.6904 127.536 41.7122 129.193 39.5288 130.94 37.3181 132.815 35.2585 134.856 33.5279 137.1 32.3046 139.586 31.7666 142.351 32.0922 142.351 32.0922 142.351 32.0922 142.351 32.0922 142.351 32.0922 142.351 32.0922 142.351 32.0922 142.351 32.0922 142.351 32.0922 142.351 32.0922 142.351 32.0922M98.6895 92.9243 99.0831 92.6284 99.4777 92.4726 99.8769 92.4291 100.284 92.47 100.703 92.5673 101.138 92.6932 101.592 92.8197 102.069 92.919 102.571 92.9632 103.104 92.9243 102.257 91.902 101.233 91.3153 100.096 91.119 98.9096 91.2673 97.7363 91.7149 96.6391 92.4162 95.6813 93.3257 94.9258 94.3979 94.4356 95.5873 94.2739 96.8485 94.9627 96.9 95.4502 96.7502 95.7829 96.4456 96.0077 96.033 96.1712 95.5592 96.3204 95.0707 96.5018 94.6144 96.7623 94.2369 97.1486 93.9848 97.7074 93.905 97.6897 94.7314 97.8975 95.5425 98.2885 96.3038 98.8207 96.9807 99.4516 97.5388 100.139 97.9435 100.841 98.1603 101.516 98.1548 102.12 97.8924 102.612 97.3385 101.998 97.1205 101.401 96.8849 100.833 96.6196 100.307 96.3126 99.8337 95.952 99.426 95.5257 99.0957 95.0218 98.8548 94.4283 98.7154 93.7331 98.6895 92.9243 98.6895 92.9243 98.6895 92.9243 98.6895 92.9243 98.6895 92.9243 98.6895 92.9243 98.6895 92.9243 98.6895 92.9243 98.6895 92.9243 98.6895 92.9243 98.6895 92.9243M107.031 31.6015 107.465 25.3735 109.775 20.506 113.5 16.9995 118.178 14.8548 123.346 14.0725 128.544 14.6533 133.308 16.5979 137.179 19.9069 139.693 24.581 140.39 30.6208 137.829 31.1989 135.613 32.1227 133.679 33.329 131.965 34.7543 130.406 36.3352 128.939 38.0085 127.501 39.7108 126.029 41.3786 124.459 42.9487 122.728 44.3576 121.795 42.4456 120.763 40.6326 119.616 38.9345 118.337 37.3671 116.912 35.9465 115.325 34.6885 113.558 33.6091 111.598 32.7242 109.427 32.0497 107.031 31.6015 107.031 31.6015 107.031 31.6015 107.031 31.6015 107.031 31.6015 107.031 31.6015 107.031 31.6015 107.031 31.6015 107.031 31.6015 107.031 31.6015 107.031 31.6015M132.54 25.2245 133.113 25.2587 133.629 25.2361 134.087 25.1547 134.484 25.0125 134.819 24.8076 135.089 24.5378 135.293 24.2013 135.428 23.7959 135.492 23.3199 135.484 22.771 135.222 22.1483 134.786 21.7033 134.231 21.4334 133.61 21.3362 132.979 21.4092 132.392 21.6501 131.901 22.0562 131.563 22.6251 131.431 23.3545 131.559 24.2417 131.609 24.3894 131.673 24.5258 131.751 24.6508 131.841 24.7648 131.941 24.8678 132.05 24.96 132.166 25.0416 132.287 25.1128 132.413 25.1737 132.54 25.2245 132.54 25.2245 132.54 25.2245 132.54 25.2245 132.54 25.2245 132.54 25.2245 132.54 25.2245 132.54 25.2245 132.54 25.2245 132.54 25.2245 132.54 25.2245M135.482 22.771 135.491 23.3195 135.427 23.7953 135.292 24.2004 135.089 24.5368 134.819 24.8065 134.484 25.0115 134.087 25.1538 133.629 25.2354 133.112 25.2583 132.539 25.2245 132.411 25.1737 132.286 25.1129 132.164 25.0418 132.048 24.9603 131.939 24.8683 131.839 24.7655 131.749 24.6518 131.671 24.5271 131.607 24.3911 131.558 24.2438 131.43 23.3563 131.562 22.6267 131.9 22.0575 132.39 21.6511 132.978 21.41 133.609 21.3367 134.229 21.4337 134.784 21.7034 135.22 22.1484 135.482 22.771 135.482 22.771 135.482 22.771 135.482 22.771 135.482 22.771 135.482 22.771 135.482 22.771 135.482 22.771 135.482 22.771 135.482 22.771 135.482 22.771M106.54 155.717 108.843 159.055 110.888 162.651 112.679 166.502 114.218 170.604 115.508 174.957 116.551 179.555 117.351 184.398 117.909 189.481 118.229 194.803 118.314 200.36 108.395 202.553 98.6252 203.366 89.1387 202.891 80.0675 201.223 71.5441 198.455 63.7011 194.682 56.671 189.998 50.5864 184.496 45.5798 178.27 41.7837 171.415 41.8654 170.938 42.061 170.717 42.3577 170.694 42.7428 170.815 43.2036 171.023 43.7275 171.262 44.3016 171.477 44.9133 171.611 45.5499 171.609 46.1986 171.415 43.5772 170.083 40.8613 168.735 38.1578 167.302 35.5732 165.72 33.2143 163.92 31.1877 161.837 29.6 159.404 28.558 156.554 28.1683 153.221 28.5376 149.339 28.5575 148.789 28.7108 148.506 28.9665 148.422 29.2931 148.472 29.6593 148.59 30.034 148.708 30.3858 148.762 30.6835 148.684 30.8956 148.408 30.9911 147.867 29.8422 147.449 28.4816 147.408 26.9618 147.63 25.3354 148 23.6547 148.403 21.9722 148.724 20.3404 148.848 18.8117 148.659 17.4386 148.044 16.2736 146.886 15.9613 144.03 16.326 141.72 17.2664 139.921 18.6816 138.596 20.4704 137.708 22.5319 137.221 24.7648 137.098 27.0681 137.302 29.3408 137.797 31.4818 138.545 31.5991 141.068 31.8083 143.614 32.1389 146.118 32.6201 148.509 33.2812 150.721 34.1516 152.685 35.2606 154.332 36.6375 155.596 38.3116 156.407 40.3123 156.697 42.3455 156.37 44.0144 155.445 45.3188 154.026 46.2588 152.217 46.8341 150.123 47.0447 147.848 46.8904 145.498 46.3711 143.176 45.4868 140.988 44.2372 139.037 44.4681 140.663 44.7935 142.576 45.126 144.668 45.3783 146.83 45.4628 148.955 45.2923 150.933 44.7794 152.658 43.8367 154.02 42.3768 154.912 40.3123 155.226 37.6505 154.468 35.5274 152.449 33.9997 149.513 33.1238 146.004 32.9565 142.266 33.5543 138.642 34.9738 135.477 37.2716 133.114 40.5044 131.896 44.7286 132.168 45.2043 132.037 45.4989 132.086 45.6529 132.275 45.7069 132.565 45.7013 132.914 45.6768 133.281 45.6739 133.627 45.7331 133.911 45.8949 134.092 46.2 134.131 46.8262 132.379 46.9648 130.589 46.7341 128.761 46.2527 126.897 45.6389 124.997 45.0111 123.062 44.4877 121.094 44.1872 119.094 44.2281 117.061 44.7286 114.998 47.8601 114.493 50.4391 114.951 52.5344 116.223 54.215 118.164 55.5496 120.626 56.6073 123.461 57.4568 126.524 58.1671 129.666 58.807 132.742 59.4454 135.603 57.5141 135.886 55.6627 136.35 53.924 136.99 52.331 137.8 50.9165 138.775 49.7133 139.907 48.7543 141.193 48.0723 142.625 47.7001 144.197 47.6707 145.905 48.2355 148.031 49.4254 149.665 51.098 150.818 53.1106 151.502 55.321 151.728 57.5865 151.508 59.7648 150.854 61.7133 149.776 63.2895 148.286 64.351 146.395 63.4657 147.168 62.1225 148.009 60.4402 148.827 58.5376 149.534 56.5332 150.038 54.546 150.251 52.6946 150.083 51.0977 149.444 49.8742 148.245 49.1428 146.395 49.1087 143.871 49.9775 141.686 51.5771 139.875 53.7352 138.471 56.2795 137.508 59.0378 137.021 61.8378 137.044 64.5074 137.61 66.8741 138.753 68.7659 140.508 69.6764 141.972 70.2488 143.513 70.526 145.12 70.5506 146.781 70.3652 148.484 70.0127 150.215 69.5357 151.964 68.9768 153.717 68.3789 155.462 67.7845 157.188 68.4049 157.269 68.8759 157.201 69.2262 157.012 69.4849 156.732 69.6807 156.388 69.8426 156.01 69.9994 155.627 70.18 155.267 70.4132 154.96 70.728 154.735 73.819 155.777 77.215 156.706 80.8425 157.485 84.6279 158.079 88.4978 158.451 92.3785 158.565 96.1967 158.385 99.8786 157.875 103.351 156.997 106.54 155.717 106.54 155.717 106.54 155.717 106.54 155.717 106.54 155.717 106.54 155.717 106.54 155.717 106.54 155.717 106.54 155.717 106.54 155.717 106.54 155.717M117.822 202.322 117.577 204.067 116.918 205.498 115.935 206.605 114.717 207.376 113.354 207.799 111.936 207.862 110.554 207.554 109.298 206.863 108.257 205.777 107.521 204.284 108.547 204.084 109.573 203.884 110.6 203.685 111.628 203.486 112.657 203.288 113.687 203.092 114.718 202.897 115.751 202.703 116.785 202.512 117.822 202.322 117.822 202.322 117.822 202.322 117.822 202.322 117.822 202.322 117.822 202.322 117.822 202.322 117.822 202.322 117.822 202.322 117.822 202.322 117.822 202.322M102.615 33.0736 109.31 33.0541 114.575 35.1938 118.396 38.9668 120.761 43.847 121.654 49.3085 121.064 54.8252 118.977 59.8712 115.379 63.9203 110.256 66.4467 103.596 66.9242 98.6524 65.638 94.7066 63.0443 91.7881 59.4585 89.9264 55.196 89.1515 50.5722 89.4928 45.9026 90.9802 41.5025 93.6432 37.6873 97.5116 34.7726 102.615 33.0736 102.615 33.0736 102.615 33.0736 102.615 33.0736 102.615 33.0736 102.615 33.0736 102.615 33.0736 102.615 33.0736 102.615 33.0736 102.615 33.0736 102.615 33.0736M102.125 56.6209 102.698 56.655 103.214 56.6323 103.672 56.551 104.069 56.4088 104.404 56.204 104.674 55.9343 104.878 55.5978 105.013 55.1925 105.077 54.7164 105.069 54.1674 104.806 53.5448 104.371 53.0998 103.815 52.8301 103.195 52.7331 102.564 52.8064 101.976 53.0475 101.486 53.4539 101.148 54.0231 101.016 54.7527 101.144 55.6402 101.207 55.7725 101.276 55.9005 101.353 56.0231 101.438 56.1388 101.531 56.2466 101.632 56.345 101.742 56.433 101.86 56.5091 101.988 56.5722 102.125 56.6209 102.125 56.6209 102.125 56.6209 102.125 56.6209 102.125 56.6209 102.125 56.6209 102.125 56.6209 102.125 56.6209 102.125 56.6209 102.125 56.6209 102.125 56.6209M105.067 54.1674 105.076 54.7161 105.012 55.192 104.877 55.5972 104.674 55.9337 104.403 56.2034 104.068 56.4084 103.671 56.5507 103.213 56.6322 102.696 56.6549 102.123 56.6209 101.987 56.5721 101.859 56.509 101.741 56.4328 101.631 56.3448 101.53 56.2463 101.437 56.1385 101.352 56.0227 101.274 55.9002 101.205 55.7723 101.142 55.6402 101.014 54.7527 101.146 54.0231 101.485 53.4539 101.975 53.0475 102.563 52.8064 103.194 52.7331 103.814 52.8301 104.369 53.0998 104.805 53.5448 105.067 54.1674 105.067 54.1674 105.067 54.1674 105.067 54.1674 105.067 54.1674 105.067 54.1674 105.067 54.1674 105.067 54.1674 105.067 54.1674 105.067 54.1674 105.067 54.1674M103.106 92.9243 102.573 92.9632 102.07 92.919 101.593 92.8197 101.139 92.6932 100.705 92.5673 100.285 92.47 99.878 92.4291 99.4789 92.4726 99.0844 92.6284 98.6909 92.9243 98.7165 93.7333 98.8557 94.4286 99.0965 95.0223 99.4269 95.5263 99.8349 95.9527 100.308 96.3134 100.835 96.6205 101.403 96.8859 102.001 97.1217 102.616 97.3399 102.123 97.8934 101.519 98.1556 100.844 98.161 100.142 97.9441 99.4542 97.5394 98.8231 96.9814 98.291 96.3046 97.8999 95.5435 97.692 94.7326 97.7095 93.9064 97.1507 93.9861 96.7643 94.2381 96.5038 94.6156 96.3223 95.0721 96.1731 95.5607 96.0095 96.0347 95.7847 96.4474 95.452 96.7521 94.9647 96.9021 94.276 96.8506 94.4371 95.5887 94.9268 94.3986 95.682 93.3258 96.6397 92.4159 97.7367 91.7143 98.9101 91.2666 100.097 91.1183 101.234 91.3148 102.258 91.9016 103.106 92.9243 103.106 92.9243 103.106 92.9243 103.106 92.9243 103.106 92.9243 103.106 92.9243 103.106 92.9243 103.106 92.9243 103.106 92.9243 103.106 92.9243 103.106 92.9243M93.2946 157.189 93.0746 154.334 93.5562 152.226 94.5929 150.804 96.0378 150.003 97.7443 149.761 99.5658 150.015 101.356 150.702 102.967 151.76 104.253 153.126 105.068 154.736 104.02 155.111 102.965 155.479 101.893 155.831 100.798 156.159 99.6719 156.455 98.5063 156.712 97.2936 156.922 96.026 157.077 94.6956 157.168 93.2946 157.189 93.2946 157.189 93.2946 157.189 93.2946 157.189 93.2946 157.189 93.2946 157.189 93.2946 157.189 93.2946 157.189 93.2946 157.189 93.2946 157.189 93.2946 157.189M56.0105 9.5263 55.5819 10.6999 54.9345 11.8628 54.1207 13.0275 53.1929 14.2065 52.2033 15.4123 51.2043 16.6573 50.2483 17.9543 49.3876 19.3155 48.6745 20.7536 48.1614 22.281 47.3096 22.1979 46.4588 22.1008 45.6102 22.0018 44.7648 21.9132 43.9238 21.8471 43.0881 21.8157 42.259 21.8312 41.4375 21.9058 40.6246 22.0517 39.8216 22.281 39.8477 19.3458 40.3043 16.7046 41.1627 14.3855 42.3941 12.4166 43.9699 10.8258 45.8614 9.64134 48.0399 8.89108 50.4767 8.60313 53.1431 8.80553 56.0105 9.5263 56.0105 9.5263 56.0105 9.5263 56.0105 9.5263 56.0105 9.5263 56.0105 9.5263 56.0105 9.5263 56.0105 9.5263 56.0105 9.5263 56.0105 9.5263 56.0105 9.5263M47.18 23.2617 46.9152 24.0772 46.6189 24.8606 46.3004 25.6214 45.9692 26.3691 45.6344 27.1131 45.3055 27.863 44.9919 28.6283 44.7028 29.4185 44.4477 30.2431 44.2358 31.1115 43.4045 30.7169 42.685 30.2104 42.0679 29.6015 41.5437 28.8995 41.103 28.114 40.7364 27.2543 40.4343 26.3298 40.1873 25.3499 39.986 24.3241 39.8209 23.2617 40.7245 23.1848 41.5163 23.1249 42.2243 23.0822 42.8765 23.0566 43.5007 23.048 44.1249 23.0566 44.777 23.0822 45.4849 23.1249 46.2766 23.1848 47.18 23.2617 47.18 23.2617 47.18 23.2617 47.18 23.2617 47.18 23.2617 47.18 23.2617 47.18 23.2617 47.18 23.2617 47.18 23.2617 47.18 23.2617 47.18 23.2617M42.7651 47.7904 40.5774 47.2744 38.492 45.7454 36.6203 43.4299 35.0734 40.5547 33.9624 37.3464 33.3987 34.0317 33.4934 30.8371 34.3578 27.9895 36.103 25.7155 38.8402 24.2417 39.0205 25.4346 39.2913 26.5372 39.6446 27.5576 40.0722 28.5038 40.5661 29.3839 41.1182 30.2058 41.7203 30.9777 42.3643 31.7074 43.0422 32.4032 43.7458 33.0729 43.3648 34.2375 43.0203 35.5529 42.722 36.9883 42.48 38.5126 42.3041 40.0949 42.2044 41.7041 42.1907 43.3092 42.273 44.8793 42.4611 46.3834 42.7651 47.7904 42.7651 47.7904 42.7651 47.7904 42.7651 47.7904 42.7651 47.7904 42.7651 47.7904 42.7651 47.7904 42.7651 47.7904 42.7651 47.7904 42.7651 47.7904 42.7651 47.7904M142.44 73.2907 142.472 74.9774 142.568 76.7337 142.727 78.5225 142.949 80.3065 143.231 82.0486 143.573 83.7115 143.974 85.258 144.433 86.6509 144.949 87.853 145.52 88.8272 145.315 88.8087 145.125 88.8435 144.944 88.9169 144.766 89.014 144.585 89.1202 144.394 89.2209 144.189 89.3012 143.962 89.3465 143.708 89.342 143.42 89.2731 142.945 88.2038 142.462 86.9325 141.983 85.5079 141.522 83.9785 141.093 82.3928 140.708 80.7995 140.382 79.2471 140.127 77.7843 139.956 76.4595 139.883 75.3214 139.941 75.1782 140.099 75.0075 140.336 74.8147 140.631 74.605 140.963 74.3837 141.311 74.1563 141.654 73.928 141.971 73.704 142.239 73.4898 142.44 73.2907 142.44 73.2907 142.44 73.2907 142.44 73.2907 142.44 73.2907 142.44 73.2907 142.44 73.2907 142.44 73.2907 142.44 73.2907 142.44 73.2907 142.44 73.2907M192.337 67.7621M196.262 63.8379M196.262 63.8379M146.754 89.7358 146.272 89.8156 145.266 90.016 143.859 90.3491 142.178 90.8275 140.348 91.4634 138.494 92.2693 136.741 93.2574 135.215 94.4402 134.042 95.8301 133.346 97.4393 133.187 98.9428 133.327 100.665 133.698 102.54 134.235 104.504 134.871 106.492 135.541 108.439 136.177 110.28 136.713 111.95 137.083 113.384 137.222 114.519 138.238 114.632 139.245 114.607 140.243 114.467 141.232 114.234 142.213 113.932 143.186 113.581 144.152 113.204 145.111 112.825 146.062 112.465 147.008 112.147 147.704 111.682 147.966 110.91 147.882 109.896 147.539 108.707 147.027 107.408 146.434 106.064 145.846 104.741 145.354 103.505 145.044 102.421 145.004 101.555 145.165 100.926 145.39 100.482 145.667 100.189 145.986 100.009 146.335 99.9081 146.704 99.8488 147.081 99.7954 147.455 99.7119 147.816 99.5623 148.151 99.3104 148.575 98.9364 149.165 98.4484 149.86 97.8521 150.601 97.1533 151.326 96.3579 151.975 95.4716 152.488 94.5002 152.803 93.4496 152.861 92.3255 152.6 91.1337 152.419 90.766 152.154 90.4438 151.804 90.169 151.365 89.9435 150.836 89.7693 150.214 89.6484 149.497 89.5826 148.683 89.5739 147.769 89.6244 146.754 89.7358 146.754 89.7358 146.754 89.7358 146.754 89.7358 146.754 89.7358 146.754 89.7358 146.754 89.7358 146.754 89.7358 146.754 89.7358 146.754 89.7358 146.754 89.7358M149.205 98.9632 149.019 99.0396 148.512 99.2564 147.758 99.5953 146.832 100.038 145.808 100.566 144.762 101.161 143.767 101.805 142.898 102.479 142.231 103.164 141.84 103.844M138.492 92.0899 139.322 92.166 140.172 92.2151 141.028 92.2522 141.876 92.2921 142.701 92.3496 143.488 92.4396 144.223 92.577 144.891 92.7766 145.479 93.0533 145.97 93.422"/>
</svg>
