<!DOCTYPE html>
<svg xmlns="http://www.w3.org/2000/svg" viewBox="0 0 350 350">
<path style="stroke: #ff0000; stroke-width: 1; fill: none;" d="M140.083 285.189 139.456 285.228 138.855 285.344 138.284 285.53 137.747 285.781 137.249 286.092 136.794 286.458 136.386 286.874 136.031 287.335 135.731 287.835 135.492 288.369 134.559 290.731 133.625 293.093 132.692 295.455 131.759 297.817 130.825 300.179 129.892 302.541 128.959 304.903 128.025 307.265 127.092 309.627 126.159 311.989 126.076 312.258 125.993 312.527 125.911 312.796 125.828 313.065 125.745 313.333 125.663 313.602 125.58 313.871 125.497 314.14 125.414 314.409 125.332 314.677 125.258 314.404 125.184 314.13 125.11 313.857 125.036 313.583 124.962 313.31 124.888 313.036 124.814 312.763 124.741 312.489 124.667 312.215 124.593 311.942 123.87 309.643 123.147 307.345 122.424 305.046 121.701 302.748 120.978 300.449 120.255 298.151 119.533 295.853 118.81 293.554 118.087 291.256 117.364 288.957 117.362 288.933 117.358 288.909 117.351 288.885 117.342 288.862 117.332 288.84 117.321 288.819 117.31 288.799 117.299 288.782 117.289 288.765 117.28 288.751 117.28 288.747 117.28 288.742 117.28 288.737 117.28 288.732 117.28 288.728 117.28 288.723 117.28 288.718 117.28 288.713 117.28 288.708 117.28 288.704 117.28 288.704 117.28 288.704 117.28 288.704 117.28 288.704 117.28 288.704 117.28 288.704 117.28 288.704 117.28 288.704 117.28 288.704 117.28 288.704 117.045 288.141 116.746 287.617 116.388 287.138 115.976 286.707 115.516 286.33 115.012 286.011 114.47 285.754 113.895 285.565 113.293 285.448 112.667 285.408 112.667 285.408 112.667 285.408 112.667 285.408 112.667 285.408 112.667 285.408 112.667 285.408 112.667 285.408 112.667 285.408 112.667 285.408 112.667 285.408 111.502 285.408 110.337 285.408 109.172 285.408 108.006 285.408 106.841 285.408 105.676 285.408 104.511 285.408 103.345 285.408 102.18 285.408 101.015 285.408 101.015 285.408 101.015 285.408 101.015 285.408 101.015 285.408 101.015 285.408 101.015 285.408 101.015 285.408 101.015 285.408 101.015 285.408 101.015 285.408 100.245 285.507 99.5179 285.718 98.8417 286.03 98.226 286.437 97.6799 286.927 97.2126 287.492 96.8332 288.124 96.5509 288.813 96.3748 289.549 96.314 290.325 96.3236 290.542 96.3506 290.772 96.3922 291.012 96.4457 291.26 96.5085 291.516 96.5778 291.776 96.651 292.04 96.7253 292.306 96.798 292.572 96.8664 292.836 97.0187 293.316 97.171 293.797 97.3233 294.278 97.4756 294.758 97.628 295.239 97.7803 295.72 97.9326 296.2 98.0849 296.681 98.2372 297.161 98.3895 297.642 97.8185 299.08 97.2474 300.517 96.6764 301.955 96.1054 303.393 95.5344 304.83 94.9634 306.268 94.3923 307.706 93.8213 309.143 93.2503 310.581 92.6793 312.018 92.5889 312.284 92.4984 312.55 92.408 312.816 92.3176 313.082 92.2272 313.348 92.1368 313.614 92.0464 313.88 91.956 314.146 91.8656 314.412 91.7752 314.677 91.7018 314.409 91.6284 314.14 91.555 313.871 91.4816 313.602 91.4082 313.333 91.3348 313.065 91.2614 312.796 91.1879 312.527 91.1145 312.258 91.0411 311.989 90.3219 309.686 89.6026 307.383 88.8833 305.08 88.1641 302.776 87.4448 300.473 86.7256 298.17 86.0063 295.867 85.2871 293.564 84.5678 291.26 83.8485 288.957 83.8283 288.933 83.8121 288.909 83.7994 288.885 83.7896 288.862 83.7822 288.84 83.7769 288.819 83.7729 288.799 83.7699 288.782 83.7674 288.765 83.7648 288.751 83.7648 288.747 83.7648 288.742 83.7648 288.737 83.7648 288.732 83.7648 288.728 83.7648 288.723 83.7648 288.718 83.7648 288.713 83.7648 288.708 83.7648 288.704 83.525 288.141 83.2208 287.617 82.858 287.138 82.4422 286.707 81.9789 286.33 81.4737 286.011 80.9324 285.754 80.3604 285.565 79.7635 285.448 79.1472 285.408 79.1472 285.408 79.1472 285.408 79.1472 285.408 79.1472 285.408 79.1472 285.408 79.1472 285.408 79.1472 285.408 79.1472 285.408 79.1472 285.408 79.1472 285.408 77.9808 285.408 76.8144 285.408 75.6479 285.408 74.4815 285.408 73.3151 285.408 72.1486 285.408 70.9822 285.408 69.8158 285.408 68.6493 285.408 67.4829 285.408 67.4829 285.408 67.4829 285.408 67.4829 285.408 67.4829 285.408 67.4829 285.408 67.4829 285.408 67.4829 285.408 67.4829 285.408 67.4829 285.408 67.4829 285.408 66.7263 285.507 66.007 285.718 65.3349 286.03 64.72 286.437 64.1723 286.927 63.7018 287.492 63.3185 288.124 63.0323 288.813 62.8533 289.549 62.7914 290.325 62.7994 290.542 62.8223 290.772 62.8587 291.012 62.9071 291.26 62.9658 291.516 63.0335 291.776 63.1086 292.04 63.1895 292.306 63.2748 292.572 63.3629 292.836 65.1076 298.036 66.8522 303.237 68.5969 308.437 70.3415 313.638 72.0862 318.838 73.8308 324.038 75.5755 329.239 77.3201 334.439 79.0648 339.64 80.8094 344.84 81.0097 345.459 81.2892 346.039 81.6411 346.574 82.0585 347.057 82.5346 347.482 83.0627 347.844 83.6359 348.136 84.2474 348.352 84.8905 348.486 85.5583 348.532 86.2096 348.49 86.8341 348.367 87.4265 348.169 87.9814 347.9 88.4935 347.566 88.9574 347.172 89.3677 346.724 89.719 346.226 90.006 345.684 90.2233 345.103 91.4455 342.02 92.6676 338.937 93.8898 335.853 95.1119 332.77 96.3341 329.687 97.5562 326.604 98.7784 323.52 100.001 320.437 101.223 317.354 102.445 314.271 102.535 313.995 102.626 313.72 102.716 313.444 102.806 313.169 102.897 312.893 102.987 312.618 103.078 312.342 103.168 312.067 103.258 311.791 103.349 311.516 103.422 311.788 103.495 312.059 103.568 312.331 103.641 312.602 103.714 312.874 103.786 313.146 103.859 313.417 103.932 313.689 104.005 313.961 104.078 314.232 105.106 317.293 106.135 320.354 107.163 323.415 108.191 326.475 109.219 329.536 110.248 332.597 111.276 335.658 112.304 338.719 113.332 341.779 114.36 344.84 114.56 345.459 114.837 346.039 115.185 346.574 115.598 347.057 116.071 347.482 116.597 347.844 117.171 348.136 117.786 348.352 118.438 348.486 119.119 348.532 119.779 348.488 120.41 348.36 121.009 348.154 121.569 347.874 122.085 347.526 122.554 347.115 122.97 346.647 123.327 346.128 123.621 345.562 123.847 344.955 125.914 339.687 127.982 334.419 130.049 329.152 132.117 323.884 134.184 318.616 136.251 313.348 138.319 308.08 140.386 302.812 142.454 297.544 144.521 292.276 144.608 292.078 144.689 291.876 144.762 291.671 144.827 291.462 144.883 291.251 144.93 291.038 144.968 290.822 144.996 290.604 145.013 290.384 145.019 290.162 144.953 289.355 144.765 288.589 144.464 287.875 144.06 287.224 143.565 286.644 142.989 286.148 142.342 285.743 141.635 285.442 140.879 285.254 140.083 285.189 140.083 285.189 140.083 285.189 140.083 285.189 140.083 285.189 140.083 285.189 140.083 285.189 140.083 285.189 140.083 285.189 140.083 285.189 140.083 285.189 140.083 285.189 140.083 285.189 140.083 285.189 140.083 285.189 140.083 285.189 140.083 285.189 140.083 285.189 140.083 285.189 140.083 285.189 140.083 285.189M227.024 285.189 226.397 285.228 225.794 285.344 225.219 285.53 224.678 285.781 224.175 286.092 223.715 286.458 223.303 286.874 222.944 287.335 222.642 287.835 222.402 288.369 221.473 290.731 220.545 293.093 219.616 295.455 218.687 297.817 217.759 300.179 216.83 302.541 215.902 304.903 214.973 307.265 214.045 309.627 213.116 311.989 213.026 312.258 212.936 312.527 212.846 312.796 212.756 313.065 212.666 313.333 212.575 313.602 212.485 313.871 212.395 314.14 212.305 314.409 212.215 314.677 212.147 314.404 212.08 314.13 212.012 313.857 211.945 313.583 211.878 313.31 211.81 313.036 211.743 312.763 211.675 312.489 211.608 312.215 211.54 311.942 210.813 309.643 210.087 307.345 209.36 305.046 208.633 302.748 207.906 300.449 207.179 298.151 206.452 295.853 205.725 293.554 204.998 291.256 204.271 288.957 204.271 288.933 204.271 288.909 204.27 288.885 204.269 288.862 204.267 288.84 204.265 288.819 204.261 288.799 204.256 288.782 204.25 288.765 204.243 288.751 204.243 288.747 204.243 288.742 204.243 288.737 204.243 288.732 204.243 288.728 204.243 288.723 204.243 288.718 204.243 288.713 204.243 288.708 204.243 288.704 204.243 288.704 204.243 288.704 204.243 288.704 204.243 288.704 204.243 288.704 204.243 288.704 204.243 288.704 204.243 288.704 204.243 288.704 204.243 288.704 203.999 288.141 203.692 287.617 203.327 287.138 202.909 286.707 202.444 286.33 201.935 286.011 201.39 285.754 200.812 285.565 200.206 285.448 199.579 285.408 199.579 285.408 199.579 285.408 199.579 285.408 199.579 285.408 199.579 285.408 199.579 285.408 199.579 285.408 199.579 285.408 199.579 285.408 199.579 285.408 198.414 285.408 197.249 285.408 196.084 285.408 194.919 285.408 193.754 285.408 192.589 285.408 191.424 285.408 190.259 285.408 189.094 285.408 187.929 285.408 187.929 285.408 187.929 285.408 187.929 285.408 187.929 285.408 187.929 285.408 187.929 285.408 187.929 285.408 187.929 285.408 187.929 285.408 187.929 285.408 187.165 285.507 186.442 285.718 185.769 286.03 185.156 286.437 184.612 286.927 184.146 287.492 183.768 288.124 183.486 288.813 183.31 289.549 183.249 290.325 183.257 290.542 183.28 290.772 183.317 291.012 183.365 291.26 183.424 291.516 183.492 291.776 183.568 292.04 183.651 292.306 183.738 292.572 183.828 292.836 183.98 293.316 184.132 293.797 184.284 294.278 184.436 294.758 184.588 295.239 184.74 295.72 184.891 296.2 185.043 296.681 185.195 297.161 185.347 297.642 184.774 299.08 184.201 300.517 183.628 301.955 183.055 303.393 182.482 304.83 181.909 306.268 181.336 307.706 180.763 309.143 180.19 310.581 179.617 312.018 179.524 312.284 179.43 312.55 179.337 312.816 179.243 313.082 179.15 313.348 179.056 313.614 178.963 313.88 178.869 314.146 178.776 314.412 178.682 314.677 178.612 314.409 178.541 314.14 178.47 313.871 178.399 313.602 178.329 313.333 178.258 313.065 178.187 312.796 178.116 312.527 178.045 312.258 177.975 311.989 177.257 309.686 176.54 307.383 175.822 305.08 175.104 302.776 174.387 300.473 173.669 298.17 172.952 295.867 172.234 293.564 171.516 291.26 170.799 288.957 170.778 288.933 170.761 288.909 170.747 288.885 170.736 288.862 170.726 288.84 170.717 288.819 170.709 288.799 170.7 288.782 170.691 288.765 170.679 288.751 170.679 288.747 170.679 288.742 170.679 288.737 170.679 288.732 170.679 288.728 170.679 288.723 170.679 288.718 170.679 288.713 170.679 288.708 170.679 288.704 170.446 288.141 170.149 287.617 169.793 287.138 169.383 286.707 168.925 286.33 168.424 286.011 167.885 285.754 167.313 285.565 166.715 285.448 166.095 285.408 166.095 285.408 166.095 285.408 166.095 285.408 166.095 285.408 166.095 285.408 166.095 285.408 166.095 285.408 166.095 285.408 166.095 285.408 166.095 285.408 164.927 285.408 163.759 285.408 162.591 285.408 161.423 285.408 160.255 285.408 159.088 285.408 157.92 285.408 156.752 285.408 155.584 285.408 154.416 285.408 154.416 285.408 154.416 285.408 154.416 285.408 154.416 285.408 154.416 285.408 154.416 285.408 154.416 285.408 154.416 285.408 154.416 285.408 154.416 285.408 153.641 285.507 152.911 285.718 152.232 286.03 151.615 286.437 151.069 286.927 150.602 287.492 150.223 288.124 149.941 288.813 149.766 289.549 149.705 290.325 149.715 290.542 149.742 290.772 149.783 291.012 149.837 291.26 149.901 291.516 149.971 291.776 150.046 292.04 150.122 292.306 150.198 292.572 150.27 292.836 152.02 298.036 153.77 303.237 155.52 308.437 157.271 313.638 159.021 318.838 160.771 324.038 162.521 329.239 164.271 334.439 166.021 339.64 167.771 344.84 167.969 345.459 168.244 346.039 168.589 346.574 169 347.057 169.47 347.482 169.994 347.844 170.564 348.136 171.176 348.352 171.823 348.486 172.499 348.532 173.14 348.49 173.758 348.367 174.346 348.169 174.899 347.9 175.412 347.566 175.879 347.172 176.296 346.724 176.656 346.226 176.955 345.684 177.188 345.103 178.409 342.02 179.63 338.937 180.851 335.853 182.072 332.77 183.293 329.687 184.514 326.604 185.735 323.52 186.956 320.437 188.177 317.354 189.397 314.271 189.482 313.995 189.566 313.72 189.651 313.444 189.735 313.169 189.82 312.893 189.904 312.618 189.988 312.342 190.073 312.067 190.157 311.791 190.242 311.516 190.319 311.788 190.397 312.059 190.474 312.331 190.552 312.602 190.629 312.874 190.707 313.146 190.784 313.417 190.862 313.689 190.939 313.961 191.017 314.232 192.041 317.293 193.066 320.354 194.091 323.415 195.116 326.475 196.141 329.536 197.166 332.597 198.191 335.658 199.216 338.719 200.241 341.779 201.266 344.84 201.471 345.459 201.753 346.039 202.106 346.574 202.522 347.057 202.997 347.482 203.524 347.844 204.098 348.136 204.711 348.352 205.358 348.486 206.033 348.532 206.693 348.488 207.327 348.36 207.93 348.154 208.496 347.874 209.019 347.526 209.493 347.115 209.912 346.647 210.271 346.128 210.563 345.562 210.782 344.955 212.851 339.687 214.919 334.419 216.988 329.152 219.056 323.884 221.124 318.616 223.193 313.348 225.261 308.08 227.33 302.812 229.398 297.544 231.466 292.276 231.552 292.078 231.631 291.876 231.701 291.671 231.762 291.462 231.815 291.251 231.859 291.038 231.894 290.822 231.919 290.604 231.935 290.384 231.94 290.162 231.875 289.355 231.688 288.589 231.388 287.875 230.987 287.224 230.494 286.644 229.921 286.148 229.276 285.743 228.572 285.442 227.817 285.254 227.024 285.189 227.024 285.189 227.024 285.189 227.024 285.189 227.024 285.189 227.024 285.189 227.024 285.189 227.024 285.189 227.024 285.189 227.024 285.189 227.024 285.189 227.024 285.189 227.024 285.189 227.024 285.189 227.024 285.189 227.024 285.189 227.024 285.189 227.024 285.189 227.024 285.189 227.024 285.189 227.024 285.189M283.483 285.303 282.325 285.303 279.218 285.303 274.649 285.303 269.106 285.303 263.076 285.303 257.049 285.303 251.512 285.303 246.953 285.303 243.859 285.303 242.72 285.303 242.72 285.303 242.72 285.303 242.72 285.303 242.72 285.303 242.72 285.303 242.72 285.303 242.72 285.303 242.72 285.303 242.72 285.303 242.72 285.303 242.029 285.359 241.374 285.519 240.765 285.776 240.21 286.121 239.717 286.545 239.294 287.042 238.951 287.601 238.695 288.215 238.535 288.876 238.48 289.574 238.48 289.574 238.48 289.574 238.48 289.574 238.48 289.574 238.48 289.574 238.48 289.574 238.48 289.574 238.48 289.574 238.48 289.574 238.48 289.574 238.48 289.575 238.479 289.576 238.478 289.577 238.477 289.578 238.477 289.579 238.476 289.58 238.475 289.581 238.474 289.582 238.474 289.583 238.473 289.583 238.473 289.707 238.473 290.07 238.473 290.657 238.473 291.455 238.473 292.451 238.473 293.629 238.473 294.976 238.473 296.479 238.473 298.123 238.473 299.895 238.473 304.695 238.473 310.098 238.473 315.842 238.473 321.668 238.473 327.313 238.473 332.517 238.473 337.019 238.473 340.558 238.473 342.872 238.473 343.702 238.473 343.712 238.473 343.717 238.473 343.717 238.473 343.715 238.473 343.711 238.473 343.706 238.473 343.702 238.473 343.699 238.473 343.699 238.473 343.702 238.474 343.702 238.474 343.702 238.475 343.702 238.476 343.702 238.477 343.702 238.477 343.702 238.478 343.702 238.479 343.702 238.48 343.702 238.48 343.702 238.569 344.421 238.763 345.104 239.054 345.741 239.432 346.322 239.889 346.84 240.416 347.283 241.005 347.645 241.647 347.914 242.333 348.082 243.055 348.14 243.055 348.14 243.055 348.14 243.055 348.14 243.055 348.14 243.055 348.14 243.055 348.14 243.055 348.14 243.055 348.14 243.055 348.14 243.055 348.14 245.152 348.14 247.06 348.14 248.77 348.14 250.276 348.14 251.569 348.14 252.644 348.14 253.493 348.14 254.108 348.14 254.482 348.14 254.609 348.14 254.609 348.14 254.609 348.14 254.609 348.14 254.609 348.14 254.609 348.14 254.609 348.14 254.609 348.14 254.609 348.14 254.609 348.14 254.609 348.14 255.338 348.066 256.026 347.884 256.667 347.604 257.251 347.234 257.771 346.781 258.218 346.255 258.584 345.662 258.862 345.011 259.042 344.311 259.116 343.568 259.116 342.969 259.116 341.11 259.116 338.304 259.116 334.862 259.116 331.095 259.116 327.315 259.116 323.833 259.116 320.96 259.116 319.008 259.116 318.288 259.58 318.287 260.838 318.283 262.692 318.278 264.945 318.271 267.398 318.264 269.854 318.257 272.114 318.251 273.98 318.245 275.254 318.241 275.738 318.24 276.45 318.177 277.125 318.006 277.754 317.734 278.328 317.371 278.837 316.926 279.274 316.406 279.629 315.822 279.894 315.181 280.059 314.492 280.116 313.764 280.058 313.049 279.89 312.368 279.62 311.73 279.258 311.147 278.812 310.626 278.291 310.179 277.705 309.814 277.061 309.541 276.37 309.37 275.64 309.311 275.165 309.311 273.904 309.311 272.052 309.311 269.808 309.311 267.369 309.311 264.931 309.311 262.692 309.311 260.849 309.311 259.598 309.311 259.138 309.311 259.136 307.865 259.133 306.419 259.131 304.972 259.129 303.526 259.127 302.08 259.125 300.634 259.123 299.188 259.121 297.741 259.118 296.295 259.116 294.849 259.802 294.849 261.665 294.849 264.411 294.849 267.747 294.849 271.379 294.849 275.014 294.849 278.36 294.849 281.122 294.849 283.007 294.849 283.722 294.849 284.466 294.757 285.169 294.555 285.823 294.253 286.42 293.858 286.949 293.381 287.402 292.831 287.771 292.215 288.045 291.543 288.216 290.824 288.275 290.067 288.212 289.291 288.029 288.556 287.737 287.871 287.345 287.247 286.864 286.693 286.305 286.218 285.677 285.832 284.99 285.545 284.256 285.365 283.483 285.303 283.483 285.303 283.483 285.303 283.483 285.303 283.483 285.303 283.483 285.303 283.483 285.303 283.483 285.303 283.483 285.303 283.483 285.303 283.483 285.303 283.483 285.303 283.483 285.303 283.483 285.303 283.483 285.303 283.483 285.303 283.483 285.303 283.483 285.303 283.483 285.303 283.483 285.303 283.483 285.303M220.271 112.757 222.32 115.69 224.119 119.303 225.814 123.288 227.553 127.341 229.482 131.155 231.747 134.425 234.497 136.845 237.878 138.109 242.036 137.912 247.12 135.947 250.136 133.64 252.451 130.401 254.043 126.439 254.892 121.965 254.977 117.187 254.277 112.316 252.772 107.562 250.441 103.135 247.264 99.2437 243.219 96.099 239.754 94.4449 236.598 93.71 233.73 93.8069 231.132 94.648 228.784 96.1459 226.668 98.2132 224.764 100.762 223.053 103.706 221.515 106.957 220.132 110.427 220.04 110.704 219.968 110.978 219.917 111.247 219.888 111.508 219.884 111.758 219.905 111.995 219.953 112.216 220.029 112.419 220.135 112.6 220.271 112.757 220.271 112.757 220.271 112.757 220.271 112.757 220.271 112.757 220.271 112.757 220.271 112.757 220.271 112.757 220.271 112.757 220.271 112.757 220.271 112.757 220.271 112.757 220.271 112.757 220.271 112.757 220.271 112.757 220.271 112.757 220.271 112.757 220.271 112.757 220.271 112.757 220.271 112.757 220.271 112.757M191.31 108.806 189.036 111.045 186.839 113.749 184.651 116.709 182.404 119.715 180.029 122.557 177.457 125.025 174.62 126.91 171.45 128.001 167.877 128.088 163.833 126.963 160.686 124.711 158.23 121.613 156.528 117.845 155.645 113.584 155.645 109.004 156.59 104.284 158.544 99.5983 161.572 95.1241 165.737 91.0375 171.102 87.5146 175.071 86.1496 178.628 85.819 181.773 86.4131 184.504 87.822 186.821 89.9359 188.723 92.6448 190.21 95.8391 191.28 99.4088 191.932 103.244 192.166 107.235 192.153 107.384 192.116 107.543 192.057 107.709 191.979 107.88 191.887 108.051 191.783 108.22 191.67 108.383 191.552 108.538 191.431 108.68 191.31 108.806 191.31 108.806 191.31 108.806 191.31 108.806 191.31 108.806 191.31 108.806 191.31 108.806 191.31 108.806 191.31 108.806 191.31 108.806 191.31 108.806 191.31 108.806 191.31 108.806 191.31 108.806 191.31 108.806 191.31 108.806 191.31 108.806 191.31 108.806 191.31 108.806 191.31 108.806 191.31 108.806M210.543 153.972 212.576 153.555 214.074 152.828 215.07 151.861 215.596 150.724 215.684 149.487 215.366 148.22 214.674 146.993 213.64 145.876 212.295 144.94 210.673 144.254 209.035 143.805 207.264 143.392 205.392 143.019 203.448 142.688 201.463 142.403 199.467 142.168 197.489 141.985 195.562 141.859 193.713 141.793 191.975 141.791 189.305 142.066 187.211 142.699 185.664 143.609 184.63 144.714 184.08 145.932 183.981 147.181 184.303 148.38 185.013 149.447 186.08 150.301 187.472 150.859 188.598 151.232 189.655 151.586 190.658 151.946 191.618 152.342 192.55 152.8 193.466 153.35 194.38 154.017 195.305 154.831 196.254 155.819 197.241 157.009 198.048 158.406 198.693 159.102 199.28 159.218 199.913 158.874 200.698 158.193 201.738 157.296 203.138 156.303 205.003 155.338 207.436 154.52 210.543 153.972 210.543 153.972 210.543 153.972 210.543 153.972 210.543 153.972 210.543 153.972 210.543 153.972 210.543 153.972 210.543 153.972 210.543 153.972 210.543 153.972 210.543 153.972 210.543 153.972 210.543 153.972 210.543 153.972 210.543 153.972 210.543 153.972 210.543 153.972 210.543 153.972 210.543 153.972 210.543 153.972M246.859 26.2417 249.96 21.9769 253.395 18.7786 257.073 16.5608 260.899 15.2381 264.782 14.7245 268.628 14.9344 272.344 15.782 275.838 17.1816 279.016 19.0475 281.785 21.294 284.333 23.9437 286.432 26.6488 288.096 29.3831 289.344 32.1207 290.191 34.8354 290.653 37.5013 290.747 40.0923 290.489 42.5823 289.896 44.9453 288.983 47.1553 287.315 50.0408 285.266 52.9006 282.909 55.5861 280.313 57.9488 277.551 59.84 274.692 61.1112 271.809 61.6138 268.971 61.1991 266.25 59.7186 263.717 57.0238 262.538 55.5222 261.163 53.9935 259.637 52.4685 258.005 50.9783 256.311 49.5539 254.6 48.2261 252.917 47.026 251.307 45.9845 249.815 45.1325 248.485 44.5011 246.741 43.6074 245.317 42.5246 244.224 41.2457 243.475 39.7642 243.081 38.0732 243.054 36.1661 243.407 34.0362 244.15 31.6766 245.297 29.0807 246.859 26.2417 246.859 26.2417 246.859 26.2417 246.859 26.2417 246.859 26.2417 246.859 26.2417 246.859 26.2417 246.859 26.2417 246.859 26.2417 246.859 26.2417 246.859 26.2417 246.859 26.2417 246.859 26.2417 246.859 26.2417 246.859 26.2417 246.859 26.2417 246.859 26.2417 246.859 26.2417 246.859 26.2417 246.859 26.2417 246.859 26.2417M285.334 97.2136 285.061 96.4491 284.766 95.8597 284.462 95.4407 284.161 95.1874 283.876 95.0949 283.619 95.1586 283.402 95.3735 283.237 95.735 283.136 96.2384 283.112 96.8787 282.796 105.709 281.373 114.466 278.832 122.948 275.164 130.956 270.357 138.29 264.402 144.75 257.287 150.136 249.003 154.249 239.539 156.889 228.884 157.855 226.351 158.283 224.368 159.399 222.739 160.975 221.267 162.78 219.754 164.583 218.004 166.154 215.82 167.262 213.005 167.677 209.362 167.169 204.694 165.507 201.066 163.655 197.718 162.957 194.609 163.054 191.694 163.585 188.931 164.19 186.278 164.509 183.69 164.182 181.126 162.85 178.542 160.151 175.894 155.727 175.278 154.259 174.602 152.968 173.867 151.841 173.074 150.865 172.224 150.028 171.318 149.319 170.357 148.726 169.342 148.235 168.274 147.835 167.154 147.513 156.826 143.56 148.125 137.409 141.167 129.371 136.068 119.754 132.942 108.87 131.906 97.0262 133.073 84.5333 136.561 71.7005 142.483 58.8375 150.956 46.2538 152.779 47.3074 154.408 48.1439 155.895 48.7412 157.292 49.0776 158.65 49.1309 160.021 48.8795 161.456 48.3012 163.008 47.3742 164.727 46.0766 166.666 44.3864 167.806 43.3837 169.063 42.3767 170.405 41.3825 171.802 40.4178 173.221 39.4996 174.632 38.6447 176.003 37.8701 177.302 37.1926 178.499 36.6291 179.562 36.1965 181.797 35.2753 183.773 34.266 185.444 33.1008 186.767 31.712 187.697 30.0319 188.187 27.9928 188.195 25.5271 187.675 22.567 186.582 19.0448 184.871 14.8929 182.002 9.78923 178.699 6.03796 175.075 3.4971 171.242 2.02465 167.314 1.47859 163.402 1.71691 159.62 2.5976 156.08 3.97866 152.895 5.71806 150.176 7.6738 147.519 10.088 145.117 12.7656 143.066 15.6915 141.458 18.8512 140.387 22.2299 139.948 25.8126 140.234 29.5848 141.338 33.5316 143.354 37.6382 146.377 41.8898 137.228 48.7436 129.603 55.8524 123.375 63.1637 118.418 70.6251 114.606 78.1844 111.812 85.789 109.909 93.3867 108.772 100.925 108.275 108.352 108.289 115.614 108.329 122.464 108.062 127.993 107.621 132.536 107.136 136.425 106.74 139.994 106.563 143.577 106.736 147.507 107.393 152.117 108.663 157.741 110.678 164.714 110.829 165.323 110.857 165.804 110.778 166.166 110.608 166.419 110.364 166.573 110.062 166.637 109.718 166.621 109.349 166.535 108.97 166.389 108.598 166.191 98.7578 158.267 90.212 148.075 83.3002 136.07 78.3623 122.704 75.7381 108.433 75.7675 93.7092 78.7903 78.9869 85.1463 64.72 95.1753 51.3623 109.217 39.3674 109.524 39.0356 109.716 38.7106 109.779 38.4182 109.702 38.1842 109.469 38.0347 109.067 37.9956 108.483 38.0926 107.704 38.3519 106.715 38.7992 105.504 39.4605 92.7536 47.5133 82.3625 56.7202 74.1483 66.8491 67.929 77.6677 63.5227 88.9439 60.7474 100.445 59.421 111.94 59.3615 123.196 60.387 133.98 62.3154 144.06 63.1864 148.384 63.6132 152.127 63.7239 155.471 63.6464 158.598 63.5086 161.69 63.4386 164.928 63.5642 168.495 64.0135 172.573 64.9143 177.343 66.3947 182.987 70.5039 194.647 74.5318 204.172 78.52 211.785 82.5101 217.708 86.5436 222.166 90.6621 225.38 94.9072 227.575 99.3205 228.973 103.943 229.797 108.818 230.271 116.485 229.78 121.527 228.357 124.378 226.077 125.477 223.015 125.26 219.246 124.164 214.844 122.626 209.885 121.083 204.444 119.97 198.595 119.726 192.413 119.769 192.065 119.888 191.77 120.072 191.543 120.307 191.4 120.58 191.355 120.88 191.423 121.192 191.619 121.505 191.958 121.806 192.455 122.082 193.126 126.994 204.254 131.834 214.976 136.823 225.086 142.186 234.382 148.143 242.66 154.919 249.715 162.736 255.345 171.817 259.346 182.384 261.514 194.661 261.644 201.166 260.382 205.608 258.649 208.3 256.534 209.554 254.127 209.685 251.514 209.006 248.787 207.829 246.032 206.469 243.34 205.237 240.799 204.448 238.497 200.628 221.3 199.925 207.12 201.604 196.124 204.93 188.478 209.168 184.349 213.583 183.904 217.439 187.308 220 194.73 220.533 206.335 218.301 222.289 216.771 231.589 217.101 238.772 219.032 244.013 222.304 247.488 226.658 249.373 231.834 249.842 237.573 249.072 243.615 247.237 249.701 244.513 255.57 241.075 261.525 235.191 267.513 225.662 273.272 213.146 278.543 198.302 283.065 181.788 286.578 164.263 288.822 146.384 289.536 128.811 288.46 112.201 285.334 97.2136 285.334 97.2136 285.334 97.2136 285.334 97.2136 285.334 97.2136 285.334 97.2136 285.334 97.2136 285.334 97.2136 285.334 97.2136 285.334 97.2136 285.334 97.2136M211.208 170.754 209.452 173.657 206.87 175.71 203.695 176.961 200.159 177.458 196.497 177.249 192.94 176.381 189.722 174.904 187.077 172.864 185.237 170.311 184.436 167.291 184.452 167.177 184.498 167.091 184.568 167.029 184.657 166.989 184.759 166.967 184.869 166.96 184.981 166.963 185.09 166.975 185.191 166.991 185.277 167.009 188.183 167.658 191.045 168.236 193.847 168.741 196.575 169.177 199.214 169.542 201.749 169.838 204.166 170.065 206.45 170.224 208.585 170.316 210.558 170.342 210.633 170.339 210.721 170.333 210.816 170.328 210.912 170.33 211.004 170.344 211.086 170.373 211.153 170.425 211.199 170.502 211.22 170.61 211.208 170.754 211.208 170.754 211.208 170.754 211.208 170.754 211.208 170.754 211.208 170.754 211.208 170.754 211.208 170.754 211.208 170.754 211.208 170.754 211.208 170.754 211.208 170.754 211.208 170.754 211.208 170.754 211.208 170.754 211.208 170.754 211.208 170.754 211.208 170.754 211.208 170.754 211.208 170.754 211.208 170.754M113.56 246.106 113.452 247.43 113.142 248.685 112.645 249.854 111.979 250.921 111.162 251.87 110.21 252.683 109.14 253.344 107.971 253.837 106.719 254.145 105.401 254.251 104.083 254.145 102.832 253.837 101.665 253.344 100.6 252.683 99.6525 251.87 98.8397 250.921 98.1783 249.854 97.6851 248.685 97.3769 247.43 97.2704 246.106 97.3769 244.793 97.6851 243.546 98.1783 242.382 98.8397 241.318 99.6525 240.371 100.6 239.558 101.665 238.895 102.832 238.401 104.083 238.092 105.401 237.986 106.719 238.092 107.971 238.401 109.14 238.895 110.21 239.558 111.162 240.371 111.979 241.318 112.645 242.382 113.142 243.546 113.452 244.793 113.56 246.106M105.401 236.364 103.822 236.492 102.323 236.863 100.923 237.455 99.643 238.249 98.5038 239.225 97.5257 240.361 96.7292 241.638 96.1349 243.034 95.7632 244.531 95.6348 246.106 95.7632 247.692 96.1349 249.197 96.7292 250.601 97.5257 251.883 98.5038 253.023 99.643 254.002 100.923 254.798 102.323 255.392 103.822 255.763 105.401 255.891 106.988 255.763 108.491 255.392 109.89 254.798 111.166 254.002 112.3 253.023 113.271 251.883 114.06 250.601 114.649 249.197 115.016 247.692 115.142 246.106 115.016 244.531 114.649 243.034 114.06 241.638 113.271 240.361 112.3 239.225 111.166 238.249 109.89 237.455 108.491 236.863 106.988 236.492 105.401 236.364 105.401 236.364 105.401 236.364 105.401 236.364 105.401 236.364 105.401 236.364 105.401 236.364 105.401 236.364 105.401 236.364 105.401 236.364 105.401 236.364M108.191 247.632 108.111 247.975 107.985 248.294 107.815 248.585 107.606 248.847 107.358 249.077 107.076 249.27 106.762 249.426 106.419 249.541 106.048 249.612 105.654 249.636 105.113 249.587 104.616 249.448 104.166 249.226 103.765 248.931 103.418 248.57 103.127 248.152 102.895 247.687 102.725 247.181 102.621 246.645 102.586 246.087 102.618 245.508 102.713 244.965 102.871 244.464 103.09 244.011 103.37 243.611 103.71 243.272 104.108 242.997 104.564 242.794 105.076 242.668 105.645 242.625 106.028 242.647 106.389 242.713 106.724 242.82 107.032 242.967 107.311 243.15 107.558 243.368 107.772 243.619 107.95 243.901 108.09 244.211 108.191 244.547 108.328 244.547 108.465 244.547 108.602 244.547 108.739 244.547 108.876 244.547 109.014 244.547 109.151 244.547 109.288 244.547 109.425 244.547 109.562 244.547 109.447 243.929 109.252 243.369 108.984 242.87 108.649 242.432 108.253 242.057 107.804 241.747 107.308 241.504 106.771 241.328 106.2 241.221 105.602 241.185 104.766 241.247 104.007 241.427 103.327 241.717 102.73 242.108 102.217 242.59 101.791 243.157 101.456 243.799 101.213 244.507 101.065 245.272 101.015 246.087 101.069 246.902 101.226 247.669 101.484 248.379 101.835 249.022 102.276 249.591 102.802 250.076 103.408 250.468 104.088 250.76 104.838 250.941 105.654 251.003 106.235 250.966 106.788 250.854 107.308 250.672 107.789 250.421 108.229 250.105 108.621 249.725 108.96 249.286 109.244 248.788 109.466 248.236 109.621 247.632 109.478 247.632 109.335 247.632 109.192 247.632 109.049 247.632 108.906 247.632 108.763 247.632 108.62 247.632 108.477 247.632 108.334 247.632 108.191 247.632 108.191 247.632 108.191 247.632 108.191 247.632 108.191 247.632 108.191 247.632 108.191 247.632 108.191 247.632 108.191 247.632 108.191 247.632 108.191 247.632M285.124 269.411 285.016 270.733 284.706 271.987 284.209 273.157 283.544 274.225 282.728 275.176 281.777 275.991 280.709 276.654 279.541 277.149 278.29 277.458 276.974 277.565 275.641 277.458 274.379 277.149 273.203 276.654 272.131 275.991 271.179 275.176 270.363 274.225 269.7 273.157 269.206 271.987 268.898 270.733 268.791 269.411 268.898 268.091 269.206 266.84 269.7 265.674 270.363 264.609 271.179 263.663 272.131 262.851 273.203 262.191 274.379 261.699 275.641 261.392 276.974 261.286 278.29 261.392 279.541 261.699 280.709 262.191 281.777 262.851 282.728 263.663 283.544 264.609 284.209 265.674 284.706 266.84 285.016 268.091 285.124 269.411M276.974 259.641 275.379 259.768 273.87 260.138 272.465 260.731 271.185 261.525 270.049 262.501 269.075 263.639 268.284 264.919 267.696 266.322 267.328 267.825 267.201 269.411 267.328 271 267.696 272.504 268.284 273.905 269.075 275.183 270.049 276.317 271.185 277.289 272.465 278.08 273.87 278.668 275.379 279.036 276.974 279.163 278.547 279.036 280.041 278.668 281.437 278.08 282.713 277.289 283.85 276.317 284.826 275.183 285.621 273.905 286.214 272.504 286.585 271 286.714 269.411 286.585 267.825 286.214 266.322 285.621 264.919 284.826 263.639 283.85 262.501 282.713 261.525 281.437 260.731 280.041 260.138 278.547 259.768 276.974 259.641 276.974 259.641 276.974 259.641 276.974 259.641 276.974 259.641 276.974 259.641 276.974 259.641 276.974 259.641 276.974 259.641 276.974 259.641 276.974 259.641M275.274 270.062 275.433 270.062 275.592 270.062 275.751 270.062 275.91 270.062 276.069 270.062 276.228 270.062 276.387 270.062 276.546 270.062 276.705 270.062 276.864 270.062 277.11 270.459 277.356 270.856 277.602 271.254 277.848 271.651 278.093 272.049 278.339 272.446 278.585 272.843 278.831 273.241 279.077 273.638 279.322 274.036 279.475 274.036 279.628 274.036 279.781 274.036 279.934 274.036 280.088 274.036 280.241 274.036 280.394 274.036 280.547 274.036 280.7 274.036 280.853 274.036 280.589 273.628 280.326 273.221 280.063 272.813 279.8 272.406 279.536 271.998 279.273 271.591 279.01 271.183 278.747 270.776 278.483 270.369 278.22 269.961 278.62 269.893 278.995 269.79 279.342 269.65 279.655 269.472 279.932 269.252 280.167 268.989 280.358 268.68 280.499 268.324 280.586 267.918 280.616 267.46 280.584 266.939 280.488 266.479 280.328 266.08 280.103 265.739 279.814 265.454 279.459 265.225 279.038 265.05 278.552 264.926 277.999 264.853 277.381 264.829 277.026 264.829 276.672 264.829 276.317 264.829 275.963 264.829 275.609 264.829 275.254 264.829 274.9 264.829 274.546 264.829 274.191 264.829 273.837 264.829 273.837 265.75 273.837 266.671 273.837 267.591 273.837 268.512 273.837 269.433 273.837 270.353 273.837 271.274 273.837 272.194 273.837 273.115 273.837 274.036 273.981 274.036 274.124 274.036 274.268 274.036 274.412 274.036 274.556 274.036 274.699 274.036 274.843 274.036 274.987 274.036 275.131 274.036 275.274 274.036 275.274 273.638 275.274 273.241 275.274 272.843 275.274 272.446 275.274 272.049 275.274 271.651 275.274 271.254 275.274 270.856 275.274 270.459 275.274 270.062M275.274 268.851 275.274 268.565 275.274 268.279 275.274 267.992 275.274 267.706 275.274 267.419 275.274 267.133 275.274 266.846 275.274 266.56 275.274 266.274 275.274 265.987 275.462 265.987 275.65 265.987 275.837 265.987 276.025 265.987 276.213 265.987 276.401 265.987 276.588 265.987 276.776 265.987 276.964 265.987 277.151 265.987 277.445 265.995 277.736 266.022 278.018 266.071 278.283 266.146 278.525 266.251 278.738 266.39 278.915 266.566 279.049 266.783 279.135 267.045 279.165 267.355 279.134 267.745 279.047 268.061 278.908 268.311 278.723 268.501 278.495 268.641 278.232 268.738 277.937 268.799 277.616 268.833 277.274 268.848 276.917 268.851 276.753 268.851 276.588 268.851 276.424 268.851 276.26 268.851 276.096 268.851 275.931 268.851 275.767 268.851 275.603 268.851 275.439 268.851 275.274 268.851 275.274 268.851 275.274 268.851 275.274 268.851 275.274 268.851 275.274 268.851 275.274 268.851 275.274 268.851 275.274 268.851 275.274 268.851 275.274 268.851"/>
</svg>
